<?xml version="1.0" standalone="no"?>
<!DOCTYPE svg PUBLIC "-//W3C//DTD SVG 20010904//EN"
 "http://www.w3.org/TR/2001/REC-SVG-20010904/DTD/svg10.dtd">
<svg version="1.0" xmlns="http://www.w3.org/2000/svg"
 width="725.000000pt" height="1260.000000pt" viewBox="0 0 725.000000 1260.000000"
 preserveAspectRatio="xMidYMid meet">
<metadata>
Created by potrace 1.13, written by Peter Selinger 2001-2015
</metadata>
<g transform="translate(0.000000,1260.000000) scale(0.100000,-0.100000)"
fill="#000000" stroke="none">

<!-- Body Background -->
<path id="body-background"  d="M3486 11765 c-70 -18 -168 -69 -207 -107 -44 -44 -87 -144 -99 -230
-19 -128 -17 -380 3 -477 9 -46 17 -115 17 -155 1 -82 12 -141 41 -210 18 -43
20 -61 14 -140 -3 -50 -11 -105 -16 -122 -15 -48 -73 -96 -214 -176 -71 -41
-178 -106 -237 -145 -59 -39 -122 -74 -140 -78 -70 -14 -193 -84 -268 -150
-151 -135 -178 -162 -227 -236 -127 -187 -181 -345 -217 -628 -15 -116 -20
-131 -80 -260 -35 -75 -76 -170 -91 -211 -24 -68 -35 -84 -133 -185 -206 -212
-302 -348 -468 -667 -126 -241 -198 -358 -262 -427 l-41 -43 -78 8 c-118 12
-131 10 -240 -45 -119 -60 -163 -94 -163 -126 0 -35 24 -49 73 -40 23 4 56 8
72 8 29 2 30 1 29 -43 -1 -38 -14 -66 -81 -176 -83 -136 -143 -265 -143 -307
0 -32 23 -51 55 -43 18 5 33 24 56 69 45 91 82 147 97 147 19 0 15 -18 -38
-148 -28 -68 -50 -131 -50 -141 0 -30 27 -46 58 -35 21 7 41 36 92 134 36 68
71 126 79 128 23 8 8 -65 -33 -152 -20 -44 -36 -89 -36 -102 0 -55 57 -41 101
24 18 26 34 49 35 51 2 2 24 5 49 6 55 2 85 28 148 124 23 37 61 90 84 119 56
69 88 134 109 218 16 67 19 71 118 167 55 54 178 164 271 245 237 204 332 304
426 447 43 66 96 145 118 176 22 31 63 101 92 155 28 54 68 122 89 149 49 63
119 196 160 300 71 186 81 193 98 79 11 -71 36 -150 172 -539 l53 -150 -6
-166 c-5 -129 -13 -198 -36 -305 -27 -127 -29 -150 -24 -274 4 -95 0 -179 -11
-283 -10 -81 -21 -228 -25 -325 l-8 -177 -61 -180 c-103 -304 -128 -500 -119
-910 7 -301 29 -486 93 -766 23 -103 46 -177 122 -389 17 -47 45 -131 62 -187
31 -99 32 -107 27 -235 -4 -103 -12 -165 -38 -273 -30 -127 -33 -154 -32 -290
0 -230 44 -461 158 -835 106 -345 107 -348 112 -535 4 -143 2 -185 -14 -265
-11 -52 -18 -115 -16 -140 6 -61 -66 -246 -144 -372 -55 -89 -93 -191 -93
-249 0 -54 114 -121 201 -117 20 1 47 -6 60 -15 29 -21 58 -21 87 -1 20 14 26
14 66 -1 64 -25 103 -5 146 71 66 118 71 132 81 224 5 56 18 111 31 139 12 25
25 75 29 111 4 36 17 92 29 124 21 59 21 61 5 150 -12 63 -19 168 -22 336 -6
274 4 375 88 918 36 234 40 281 36 382 -8 189 -37 310 -143 600 -40 111 -43
189 -10 286 26 79 42 177 71 439 18 166 72 617 117 980 26 215 32 297 32 475
1 201 2 215 20 218 36 7 39 -12 41 -220 1 -210 -1 -188 99 -1018 19 -157 42
-350 51 -430 28 -256 45 -353 76 -445 40 -115 36 -149 -36 -343 -64 -172 -88
-263 -110 -406 -23 -155 -19 -236 25 -521 85 -558 92 -633 87 -910 -3 -174
-10 -278 -22 -341 -16 -89 -16 -91 5 -150 12 -32 25 -88 29 -124 4 -36 17 -86
29 -111 13 -28 26 -83 31 -139 10 -92 15 -106 81 -224 43 -76 82 -96 146 -71
40 15 46 15 66 1 29 -20 58 -20 87 1 13 9 40 16 60 15 87 -4 201 63 201 117 0
58 -38 160 -93 249 -32 51 -78 146 -103 210 -38 98 -45 125 -41 166 2 27 -2
75 -10 105 -8 31 -17 128 -20 216 -7 198 2 246 98 565 113 377 150 546 171
782 13 146 4 246 -38 423 -21 85 -28 143 -31 255 l-4 145 60 170 c32 94 73
211 91 260 64 181 128 508 150 760 13 157 13 493 -1 631 -16 170 -55 344 -116
524 l-56 165 -8 175 c-5 96 -15 234 -24 305 -26 222 -27 248 -16 328 10 73 9
91 -24 263 -29 155 -35 207 -35 322 0 163 8 197 119 481 65 169 111 335 111
405 0 28 12 34 27 14 6 -7 27 -58 48 -113 61 -160 128 -285 190 -355 13 -14
45 -68 72 -120 47 -89 113 -197 238 -385 69 -103 187 -224 400 -407 94 -81
216 -191 271 -245 99 -96 102 -100 118 -167 21 -84 53 -149 109 -218 23 -29
61 -82 84 -119 63 -96 93 -122 148 -124 25 -1 47 -4 49 -6 1 -2 17 -25 35 -51
44 -65 101 -79 101 -24 0 13 -16 58 -36 102 -41 87 -56 160 -33 152 8 -2 43
-60 79 -128 51 -98 71 -127 92 -134 31 -11 58 5 58 35 0 10 -22 73 -50 141
-53 130 -57 148 -37 148 14 0 51 -56 96 -147 23 -45 38 -64 56 -69 32 -8 55
11 55 43 0 42 -60 171 -143 307 -67 110 -80 138 -81 176 -1 44 0 45 29 43 17
0 49 -4 72 -8 49 -9 73 5 73 40 0 32 -44 66 -163 126 -109 55 -122 57 -240 45
l-78 -8 -41 43 c-64 69 -136 186 -262 427 -166 319 -262 455 -468 667 -98 101
-109 117 -133 185 -15 41 -53 132 -86 201 -64 139 -71 163 -95 328 -24 172
-56 285 -114 401 -83 166 -135 234 -270 357 -130 118 -199 162 -293 186 -40
11 -96 41 -190 104 -72 48 -174 111 -226 138 -109 58 -186 122 -200 168 -5 18
-13 73 -16 123 -6 79 -4 97 14 140 29 69 40 128 41 211 0 39 6 104 14 145 24
126 28 198 17 348 -13 185 -24 234 -70 311 -30 50 -51 70 -102 101 -35 21 -86
46 -114 54 -72 23 -217 27 -289 9z"/>

<!-- [FMA:9628] Rectus Abdominus.svg -->
<path id="FMA:9628" class="muscle" d="M3565 8860 c-13 -21 -131 -73 -271 -120 -178 -59 -229 -89 -272 -161
-54 -90 -73 -168 -71 -289 2 -81 -2 -112 -14 -137 -31 -58 -17 -223 18 -223
27 0 101 39 126 66 14 16 61 87 105 158 126 206 255 319 364 319 34 0 40 3 49
30 14 38 14 307 1 341 -10 27 -24 33 -35 16z M3640 8844 c-13 -34 -13 -303 0
-340 9 -26 16 -30 50 -31 119 -5 235 -106 358 -313 82 -138 176 -230 236 -230
34 0 48 151 20 218 -10 25 -16 77 -18 162 -3 139 -19 199 -80 287 -41 60 -97
92 -246 140 -122 38 -273 104 -284 122 -12 18 -26 12 -36 -15z M3510 8441
c-110 -35 -194 -117 -308 -303 -62 -100 -103 -154 -158 -207 -71 -68 -86 -93
-64 -106 5 -3 35 8 67 24 136 70 254 100 395 101 67 0 80 3 107 26 49 41 60
100 58 299 l-3 170 -34 2 c-19 1 -46 -2 -60 -6z M3632 8274 c-1 -203 9 -256
59 -299 26 -21 40 -25 98 -25 136 0 269 -33 402 -101 33 -16 64 -27 69 -24 22
14 6 41 -77 128 -56 59 -113 133 -158 205 -115 187 -221 277 -339 289 l-53 5
-1 -178z M3395 7919 c-167 -11 -269 -41 -384 -113 -43 -28 -43 -28 -39 -77 4
-38 18 -68 68 -144 104 -158 165 -198 271 -176 91 19 173 67 219 128 56 73 70
119 70 223 0 121 -23 174 -72 168 -7 0 -67 -5 -133 -9z M3676 7916 c-26 -19
-36 -64 -36 -155 0 -103 14 -150 65 -219 70 -93 228 -159 318 -133 104 31 282
303 239 367 -13 20 -107 73 -173 98 -105 39 -380 68 -413 42z M3520 7460 c-25
-4 -65 -19 -90 -33 -57 -31 -140 -51 -179 -42 -40 9 -111 -23 -139 -63 -32
-44 -46 -123 -38 -215 8 -91 34 -162 103 -281 26 -44 84 -151 128 -237 73
-143 86 -161 150 -219 148 -132 224 -131 358 6 49 50 77 93 136 206 40 79 102
195 137 258 79 143 97 212 92 340 -3 72 -8 104 -23 130 -27 47 -97 82 -150 77
-60 -6 -143 11 -205 44 -47 24 -71 30 -146 33 -49 2 -109 0 -134 -4z m195 -55
c24 -23 33 -45 19 -45 -4 0 -13 8 -20 18 -12 16 -14 16 -34 -4 -17 -17 -24
-41 -32 -110 -10 -92 -5 -412 7 -451 5 -14 3 -23 -3 -23 -6 0 -14 16 -18 35
-8 43 -22 45 -31 5 -10 -55 -24 -45 -16 12 4 29 8 148 7 265 -1 178 -3 216
-17 237 -20 30 -56 44 -68 25 -4 -7 -11 -10 -15 -6 -4 4 5 21 21 37 27 28 34
30 102 30 65 0 77 -3 98 -25z"/>

<!-- [FMA:13335] External Oblique.svg -->
<path id="FMA:13335" class="muscle" d="M2805 8740 c-7 -21 14 -90 46 -151 22 -43 17 -51 -28 -43 -18 3 -33
5 -33 3 0 -35 34 -177 49 -207 11 -22 17 -42 14 -46 -15 -14 -79 -4 -120 19
-23 14 -43 24 -43 22 0 -2 9 -22 20 -45 11 -23 22 -64 25 -91 3 -28 12 -76 20
-108 8 -32 19 -89 24 -126 13 -94 47 -161 84 -165 22 -3 38 7 83 55 l56 58
-31 6 c-18 4 -35 10 -39 14 -4 3 -9 48 -10 100 -3 73 0 99 14 126 14 27 17 56
15 144 -2 121 10 171 68 279 30 56 53 78 125 118 17 9 29 17 26 18 -3 0 -69 3
-147 6 -91 3 -155 10 -177 19 -33 14 -35 14 -41 -5z M4380 8744 c-19 -8 -85
-14 -170 -16 -77 -2 -140 -5 -140 -8 0 -3 23 -18 51 -35 63 -37 98 -87 133
-188 24 -70 27 -92 25 -190 -2 -90 1 -119 15 -146 14 -27 17 -53 14 -126 -1
-52 -6 -97 -11 -101 -4 -4 -17 -8 -30 -9 -12 -1 -20 -6 -18 -11 20 -50 21 -60
12 -82 -8 -16 -8 -29 -1 -43 17 -31 14 -127 -4 -148 -9 -10 -16 -21 -16 -25 0
-4 -19 -32 -42 -61 -24 -30 -52 -68 -63 -86 -11 -18 -35 -40 -54 -50 l-34 -18
44 -19 c24 -11 55 -32 69 -47 24 -26 25 -31 24 -168 0 -121 -4 -153 -23 -212
-13 -38 -36 -86 -51 -105 -15 -19 -31 -46 -35 -60 -4 -14 -12 -31 -17 -37 -7
-9 -5 -14 6 -18 9 -3 23 -7 32 -10 26 -8 81 5 99 23 26 28 68 75 114 129 45
53 81 73 132 73 16 0 29 4 29 9 0 5 13 12 29 16 28 6 29 7 41 115 11 93 10
118 -3 182 -47 219 -52 257 -52 386 0 72 -3 132 -6 132 -3 0 -11 -11 -17 -25
-6 -14 -16 -25 -22 -25 -19 0 -10 83 16 147 15 39 22 72 18 85 -12 38 -6 92
16 141 14 32 20 64 19 100 -1 28 1 60 6 70 7 16 2 17 -59 11 -74 -8 -80 -2
-41 44 30 36 55 111 55 168 0 47 -15 59 -56 44 -14 -6 -27 -10 -30 -10 -2 0
14 35 36 78 22 42 42 89 46 103 5 24 2 27 -25 31 -17 2 -44 -1 -61 -8z m-20
-954 c0 -5 -2 -10 -4 -10 -3 0 -8 5 -11 10 -3 6 -1 10 4 10 6 0 11 -4 11 -10z
M2929 7814 c-35 -38 -67 -48 -95 -29 -31 20 -31 20 -26 -20 5 -43 -11 -46 -35
-5 -9 17 -20 30 -23 30 -3 0 -5 -62 -5 -137 0 -76 -5 -160 -12 -188 -7 -27
-22 -101 -34 -162 -19 -102 -20 -122 -10 -205 13 -104 23 -120 94 -139 23 -6
54 -16 69 -21 26 -10 160 -142 189 -187 12 -19 24 -24 60 -24 24 0 56 5 71 11
l27 11 -50 88 c-72 129 -89 188 -89 306 0 55 5 117 12 139 10 35 64 96 99 112
12 5 11 7 -1 12 -36 15 -134 134 -171 206 -40 80 -47 117 -29 164 11 27 5 64
-9 64 -4 0 -18 -12 -32 -26z"/>

<!-- [FMA:13357] Latissimus Dorsi.svg -->
<path id="FMA:13357" class="muscle" d="M2550 8930 c0 -30 -7 -95 -15 -145 -8 -49 -14 -126 -13 -170 l1 -80
7 95 c5 61 19 129 38 189 l31 94 -25 36 -24 36 0 -55z M4664 8945 l-22 -38 23
-68 c13 -37 29 -93 35 -124 20 -94 23 -53 6 67 -9 62 -17 133 -19 157 l-2 43
-21 -37z M4711 8624 c0 -11 3 -14 6 -6 3 7 2 16 -1 19 -3 4 -6 -2 -5 -13z"/>

<!-- [FMA:13397] Serratus Anterior.svg -->
<path id="FMA:13397" class="muscle" d="M4605 8860 c-11 -17 -43 -47 -72 -66 -43 -30 -53 -44 -63 -81 -6 -25
-22 -68 -36 -95 -14 -28 -23 -52 -20 -56 3 -3 24 2 47 11 36 14 40 14 35 1 -3
-8 -10 -43 -16 -78 -11 -73 -26 -118 -53 -163 l-19 -33 34 0 c19 0 51 9 73 20
21 11 41 17 44 15 2 -3 -5 -26 -17 -50 -13 -27 -22 -65 -22 -93 0 -26 -9 -79
-20 -117 -11 -39 -18 -81 -15 -95 6 -30 -17 -121 -39 -155 -9 -13 -16 -35 -16
-47 l1 -23 18 22 c11 13 42 94 71 180 28 87 65 192 81 233 69 173 89 261 89
391 0 94 -20 201 -51 277 l-14 32 -20 -30z M2600 8855 c-6 -15 -20 -64 -31
-107 -37 -142 -13 -362 61 -558 17 -47 49 -141 71 -210 22 -69 45 -134 52
-145 6 -11 17 -32 24 -47 35 -69 39 -22 8 77 -7 22 -16 65 -20 95 -4 30 -16
82 -26 115 -10 33 -19 85 -19 116 0 42 -7 68 -26 103 -15 26 -24 50 -21 53 3
3 30 -7 61 -21 30 -14 69 -26 86 -26 l30 0 -24 48 c-14 27 -32 87 -42 133 -9
46 -22 87 -28 91 -20 13 2 20 25 8 12 -7 35 -16 50 -20 l29 -8 -30 58 c-16 32
-34 77 -40 101 -10 37 -18 47 -49 62 -21 9 -59 38 -84 64 l-46 47 -11 -29z"/>

<!-- [FMA:22430] Rectus Femoris.svg -->
<path id="FMA:22430" class="muscle" d="M2729 6363 c-47 -43 -66 -76 -107 -193 -56 -160 -66 -418 -27 -715
40 -307 58 -381 183 -745 75 -218 104 -328 106 -404 1 -56 3 -60 29 -69 35
-11 66 -4 94 23 19 17 21 24 12 48 -19 50 -16 184 7 327 6 43 128 474 145 514
20 48 49 256 49 349 0 205 -36 375 -115 539 -91 191 -239 363 -311 363 -13 0
-42 -16 -65 -37z M4374 6372 c-122 -89 -261 -312 -318 -513 -51 -178 -58 -431
-19 -614 11 -49 50 -191 87 -315 66 -219 80 -277 94 -390 9 -75 6 -199 -7
-232 -9 -24 -7 -31 12 -48 28 -27 59 -34 94 -23 26 9 28 13 29 69 2 76 31 186
106 404 97 282 128 388 148 510 89 525 77 841 -40 1071 -25 47 -94 109 -124
109 -12 0 -41 -13 -62 -28z"/>

<!-- [FMA:22431] Vastus Lateralis.svg -->
<path id="FMA:22431" class="muscle" d="M2542 5997 c-86 -281 -104 -754 -47 -1212 38 -299 129 -638 183 -682
34 -28 75 -37 100 -24 26 14 59 94 74 180 16 96 8 134 -112 491 -54 162 -108
340 -119 395 -57 282 -85 656 -62 829 7 48 11 90 9 92 -2 2 -14 -29 -26 -69z
M4668 6030 c4 -25 7 -139 6 -255 -1 -365 -46 -626 -175 -999 -102 -296 -133
-414 -126 -481 8 -70 44 -182 68 -206 26 -26 47 -24 96 8 39 25 43 33 82 150
160 480 195 1222 82 1697 -25 102 -44 151 -33 86z"/>

<!-- [FMA:22432] Vastus Medialis.svg -->
<path id="FMA:22432" class="muscle" d="M3235 5428 c-2 -7 -9 -53 -15 -103 -14 -116 -48 -260 -111 -463 -102
-334 -111 -454 -45 -622 20 -52 44 -117 51 -145 20 -70 34 -92 66 -105 37 -16
78 -5 122 31 81 67 105 156 114 424 5 147 -9 256 -57 420 -58 203 -68 259 -75
405 -7 136 -14 170 -37 170 -5 0 -10 -6 -13 -12z M3963 5428 c-6 -7 -14 -78
-17 -158 -7 -146 -17 -200 -76 -405 -48 -164 -62 -273 -57 -420 9 -268 33
-357 114 -424 44 -36 85 -47 122 -31 32 13 46 35 66 105 7 28 31 93 51 145 65
168 57 288 -45 622 -68 224 -90 313 -110 452 -16 116 -27 141 -48 114z"/>

<!-- [FMA:22538] Peroneus.svg -->
<path id="FMA:22538" class="muscle" d="M2725 3332 c-23 -98 -31 -339 -16 -459 27 -201 60 -340 190 -781 28
-96 53 -196 57 -223 4 -27 11 -49 16 -49 11 0 10 16 -27 405 -13 138 -31 349
-40 470 -19 270 -28 334 -70 501 -33 133 -52 181 -78 202 -12 10 -17 -1 -32
-66z M4468 3394 c-24 -28 -44 -84 -77 -219 -33 -134 -36 -158 -136 -1302 -4
-40 -2 -63 5 -63 5 0 10 12 10 28 0 33 43 199 104 398 61 202 101 361 128 507
31 166 32 482 2 596 -18 70 -20 72 -36 55z"/>

<!-- [FMA:22542] Soleus.svg -->
<path id="FMA:22542" class="muscle" d="M3356 3438 c-47 -62 -105 -175 -120 -234 -37 -144 -30 -272 29 -541
19 -87 48 -259 65 -383 17 -124 34 -241 37 -260 4 -25 12 16 28 140 13 96 42
299 65 450 38 248 42 286 36 390 -3 63 -13 149 -21 190 -18 94 -76 280 -86
280 -4 0 -19 -15 -33 -32z M3807 3382 c-44 -145 -67 -270 -73 -392 -5 -101 -2
-143 30 -340 46 -294 86 -581 86 -620 0 -16 5 -30 10 -30 6 0 10 19 10 43 0
71 59 453 95 621 59 267 66 401 29 542 -21 82 -128 264 -154 264 -4 0 -19 -40
-33 -88z"/>

<!-- [FMA:32557] Trapezius (Upper Fibers).svg -->
<path id="FMA:32557" class="muscle" d="M3976 10249 c-10 -53 -7 -138 7 -172 50 -119 169 -164 397 -150 l125
8 -78 57 c-43 31 -142 93 -221 138 -79 45 -159 97 -177 116 -19 18 -37 34 -40
34 -4 0 -9 -14 -13 -31z M3198 10236 c-20 -18 -90 -61 -155 -96 -137 -74 -312
-186 -313 -201 0 -3 58 -9 129 -13 232 -12 354 38 399 164 9 25 -6 180 -17
180 -4 -1 -23 -16 -43 -34z"/>

<!-- [FMA:34687] Pectoralis (Clavicular).svg -->
<path id="FMA:34687" class="muscle" d="M2994 9880 c-50 -10 -137 -53 -164 -80 -11 -11 -20 -29 -20 -40 0
-17 5 -19 28 -14 15 3 43 13 62 22 26 13 74 17 192 20 138 3 166 1 230 -18 80
-24 109 -26 151 -9 48 20 75 98 40 115 -25 11 -468 15 -519 4z M3758 9883
c-42 -7 -52 -26 -36 -68 22 -63 81 -80 168 -49 47 16 82 19 235 19 172 0 183
-1 243 -26 l62 -27 0 28 c0 34 -19 51 -105 92 l-70 33 -235 1 c-129 1 -247 0
-262 -3z"/>

<!-- [FMA:34696] Pectoralis (Sternal).svg -->
<path id="FMA:34696" class="muscle" d="M3060 9781 c-9 -5 -35 -12 -57 -14 -111 -13 -212 -63 -262 -130 -42
-57 -81 -94 -155 -145 -35 -24 -54 -48 -74 -90 -25 -53 -27 -67 -27 -189 l0
-132 41 -43 c23 -24 62 -73 88 -110 86 -122 150 -157 324 -179 133 -17 274 -1
416 46 114 38 231 97 246 125 16 30 -3 607 -22 651 -20 46 -70 103 -116 131
-20 12 -39 25 -42 30 -4 4 -33 17 -65 29 -67 23 -268 37 -295 20z M3970 9780
c-84 -9 -123 -21 -154 -50 -11 -10 -41 -34 -66 -52 -30 -22 -55 -52 -74 -92
l-30 -58 -8 -295 c-5 -194 -5 -300 2 -313 5 -10 40 -35 77 -55 153 -82 374
-132 528 -120 228 18 295 52 394 200 19 28 52 69 75 93 l41 43 0 132 c0 122
-2 136 -27 189 -20 43 -39 66 -75 90 -44 30 -101 85 -187 178 -70 77 -307 130
-496 110z"/>

<!-- [FMA:37670] Bicep.svg -->
<path id="FMA:37670" class="muscle" d="M2415 9264 c-62 -82 -207 -212 -298 -265 -83 -50 -103 -77 -205 -277
-135 -268 -174 -391 -187 -603 -9 -131 -2 -149 57 -149 50 0 300 54 350 76 21
9 45 28 54 43 10 14 37 49 61 79 53 66 138 239 188 387 21 61 44 115 50 120
14 12 45 208 45 284 0 45 -3 53 -33 75 -18 14 -51 29 -72 34 -21 4 -40 13 -43
20 -4 14 27 16 60 3 l23 -9 0 124 c0 68 0 124 0 124 0 0 -23 -30 -50 -66z
M4775 9201 l0 -119 23 9 c33 13 64 11 60 -3 -3 -7 -22 -16 -43 -20 -21 -5 -54
-20 -72 -34 -29 -22 -33 -31 -33 -70 0 -59 29 -263 40 -289 6 -11 26 -67 46
-125 81 -237 221 -464 311 -503 51 -22 300 -77 351 -77 59 0 66 18 57 149 -4
58 -11 129 -16 156 -12 64 -89 264 -146 378 -24 48 -53 111 -64 139 -39 101
-84 154 -175 208 -88 53 -274 226 -310 288 -10 17 -21 32 -24 32 -3 0 -5 -54
-5 -119z"/>

<!-- [FMA:38459] Flexor Carpi Radialis.svg -->
<path id="FMA:38459" class="muscle" d="M1925 7970 c-78 -21 -167 -25 -195 -10 -24 13 -101 -28 -138 -73 -15
-17 -49 -56 -76 -85 l-50 -53 60 39 c52 35 173 92 196 92 25 0 1 -18 -44 -34
-131 -45 -260 -142 -293 -218 -71 -168 -136 -260 -319 -449 -53 -54 -96 -101
-96 -104 0 -20 40 12 165 133 175 170 282 257 360 292 99 45 365 286 467 422
31 43 47 72 36 67 -2 -1 -34 -9 -73 -19z M5230 7982 c0 -13 69 -103 129 -168
97 -105 312 -285 376 -314 79 -35 186 -123 366 -297 81 -79 149 -143 153 -143
19 0 -4 31 -90 119 -183 189 -248 281 -319 449 -33 76 -162 173 -292 218 -46
16 -70 34 -45 34 16 0 134 -51 170 -74 21 -12 43 -26 51 -31 8 -5 -14 25 -50
67 -85 99 -113 114 -203 110 -61 -3 -152 11 -228 34 -10 3 -18 1 -18 -4z"/>

<!-- [FMA:38465] Flexor Carpi Ulnaris.svg -->
<path id="FMA:38465" class="muscle" d="M2055 7993 c-20 -3 -36 -13 -46 -31 -38 -66 -151 -192 -250 -278
-123 -108 -224 -230 -299 -360 -66 -113 -112 -173 -230 -298 -63 -66 -95 -107
-92 -118 2 -10 7 -18 12 -18 5 0 91 86 191 190 146 151 197 198 249 227 93 51
277 241 349 359 30 49 77 125 106 169 80 123 95 151 88 158 -6 7 -23 7 -78 0z
M5106 7991 c-8 -13 11 -51 79 -156 29 -44 76 -120 106 -169 72 -118 256 -308
349 -359 52 -29 104 -76 253 -232 104 -107 193 -193 198 -189 22 13 3 42 -88
138 -121 126 -167 186 -233 300 -75 130 -176 252 -299 360 -106 93 -250 257
-265 303 -1 0 -22 4 -47 8 -30 4 -49 3 -53 -4z"/>

<!-- [FMA:38469] Flexor Digitorum Superficialis.svg -->
<path id="FMA:38469" class="muscle" d="M1297 7581 c-46 -49 -133 -147 -192 -218 -60 -70 -133 -154 -164
-185 -30 -32 -53 -59 -50 -60 2 -2 18 -8 36 -15 32 -11 33 -11 129 90 146 152
258 298 285 370 12 34 28 72 36 85 7 12 12 22 9 22 -2 0 -42 -40 -89 -89z
M5882 7583 c35 -95 134 -226 295 -393 98 -102 98 -102 128 -89 17 7 32 15 34
16 3 2 -20 29 -50 61 -31 31 -104 115 -164 186 -60 71 -146 168 -191 215 l-83
86 31 -82z M1487 7476 c-89 -47 -166 -110 -357 -293 l-135 -130 29 -37 c15
-21 36 -40 45 -43 9 -3 24 -13 34 -21 16 -14 21 -12 58 24 82 78 218 243 259
315 47 80 97 158 130 202 12 15 20 26 18 26 -1 -1 -38 -20 -81 -43z M5680
7493 c33 -44 83 -122 130 -202 42 -72 176 -236 262 -319 44 -42 44 -43 63 -22
10 11 24 20 31 20 7 0 26 17 43 39 l31 39 -121 117 c-189 182 -299 273 -366
306 -34 16 -65 34 -68 39 -3 6 -11 10 -16 10 -6 0 -1 -12 11 -27z"/>

<!-- [FMA:38485] Brachioradialis.svg -->
<path id="FMA:38485" class="muscle" d="M1638 8239 c-100 -103 -224 -257 -295 -366 -43 -66 -293 -527 -293
-540 0 -3 34 35 76 84 42 48 161 174 264 280 195 199 305 341 314 405 11 82
24 213 20 217 -2 3 -41 -33 -86 -80z M5514 8293 c3 -10 10 -67 16 -128 l10
-110 56 -83 c34 -49 122 -150 216 -245 88 -89 205 -214 261 -277 55 -63 104
-119 109 -125 5 -5 -8 24 -30 65 -241 456 -258 485 -371 630 -81 104 -249 290
-262 290 -6 0 -8 -8 -5 -17z"/>

<!-- [FMA:74998] Inner Thigh (Adductor).svg -->
<path id="FMA:74998" class="muscle" d="M3412 5973 c-42 -110 -70 -229 -88 -368 -8 -66 -19 -140 -25 -165 -6
-30 -6 -90 0 -175 10 -126 16 -156 96 -452 13 -51 29 -129 35 -174 11 -89 20
-114 20 -55 0 45 50 473 88 756 22 171 27 242 27 424 0 203 -1 220 -19 230
-10 6 -34 21 -53 34 -18 12 -38 22 -43 22 -4 0 -22 -35 -38 -77z M3764 6039
c-3 -6 -26 -20 -49 -30 l-43 -19 -7 -87 c-12 -133 1 -354 33 -608 17 -126 42
-335 58 -462 15 -128 30 -233 33 -233 4 0 12 37 19 83 7 45 30 144 51 220 22
76 47 173 55 215 47 233 -6 638 -119 915 -8 20 -21 22 -31 6z"/>

<!-- [FMA:83003] Deltoid (Anterior).svg -->
<path id="FMA:83003" class="muscle" d="M2785 9809 c-16 -6 -73 -24 -125 -41 -136 -44 -297 -135 -367 -209
-81 -87 -178 -223 -226 -318 -50 -100 -52 -107 -55 -200 l-4 -96 24 22 c12 11
48 36 78 53 135 79 297 246 385 398 28 48 54 76 110 118 41 30 87 73 104 97
16 23 41 53 56 67 30 27 75 93 75 110 0 12 -15 12 -55 -1z M4400 9810 c0 -17
45 -83 75 -110 15 -14 40 -44 56 -67 17 -24 63 -67 104 -97 56 -42 82 -70 110
-118 88 -152 250 -319 385 -398 30 -17 66 -42 79 -53 l23 -22 -4 97 c-4 93 -6
101 -56 200 -75 150 -211 319 -312 387 -122 82 -206 120 -376 170 -82 24 -84
24 -84 11z"/>

<!-- [FMA:83006] Deltoid (Lateral).svg -->
<path id="FMA:83006" class="muscle" d="M2598 9891 c-59 -19 -146 -69 -170 -98 -7 -9 -57 -54 -111 -100 -138
-120 -252 -298 -306 -479 -25 -86 -27 -119 -2 -49 23 64 56 128 94 185 66 96
199 250 247 285 78 58 279 157 304 151 33 -9 157 31 227 72 62 37 62 37 33 43
-66 15 -258 8 -316 -10z M4316 9902 c-29 -7 -29 -7 33 -44 70 -41 141 -65 221
-73 58 -5 222 -85 313 -152 59 -44 219 -239 282 -345 26 -44 49 -77 51 -75 7
6 -23 84 -65 167 -68 136 -134 222 -241 317 -224 196 -244 206 -435 209 -71 1
-143 0 -159 -4z M1978 9060 c-8 -18 -28 -161 -28 -193 0 -18 5 -14 24 18 21
36 23 47 17 115 -4 41 -10 68 -13 60z M5243 9028 c4 -26 2 -59 -3 -74 -8 -21
-5 -33 15 -67 29 -49 30 -41 14 83 -7 47 -16 90 -22 95 -6 7 -8 -6 -4 -37z"/>

<!-- Body Outline -->
<path id="body" d="M3478 11764 c-129 -31 -230 -110 -267 -208 -28 -76 -41 -187 -43
-371 -1 -112 3 -187 15 -250 9 -49 18 -135 21 -190 5 -80 11 -110 32 -154 27
-53 27 -55 17 -169 l-10 -116 -49 -45 c-28 -25 -95 -70 -150 -100 -110 -60
-249 -148 -306 -193 -20 -16 -63 -35 -95 -44 -32 -8 -86 -28 -121 -45 -57 -28
-98 -61 -273 -223 -104 -95 -226 -315 -268 -481 -22 -89 -36 -168 -50 -298 -9
-76 -19 -105 -75 -225 -35 -75 -76 -171 -91 -212 -24 -68 -35 -84 -133 -185
-227 -233 -328 -380 -516 -753 -81 -160 -163 -290 -224 -355 l-27 -29 -110 7
-110 7 -111 -56 c-151 -76 -208 -137 -155 -166 30 -16 73 -12 109 10 18 11 41
20 52 20 17 0 20 -7 20 -46 0 -40 -9 -61 -64 -149 -75 -120 -138 -241 -162
-314 -20 -63 -9 -101 29 -101 31 0 50 22 81 92 64 145 162 251 103 111 -14
-32 -41 -96 -61 -143 -20 -47 -38 -101 -39 -120 -2 -30 1 -35 22 -38 46 -7 71
19 122 124 27 56 49 106 49 111 0 14 57 79 65 72 8 -9 -26 -110 -69 -199 -39
-80 -43 -99 -24 -118 34 -34 88 8 123 96 17 40 17 40 37 20 11 -11 26 -17 35
-14 8 3 18 6 23 6 15 0 72 66 118 135 25 39 63 90 84 114 49 56 93 148 109
230 l13 63 131 122 c71 67 188 171 259 231 239 202 344 315 432 463 32 53 78
124 102 157 24 32 62 98 84 145 23 47 58 105 78 130 20 25 50 68 67 95 37 58
120 249 153 350 29 91 40 101 40 39 0 -108 34 -235 130 -489 98 -257 95 -243
95 -425 0 -149 -3 -181 -34 -330 -34 -162 -34 -166 -22 -265 7 -56 10 -112 7
-125 -12 -48 -46 -456 -46 -545 0 -95 -19 -170 -90 -370 -129 -364 -134 -1047
-10 -1595 26 -117 51 -197 137 -440 86 -242 86 -244 80 -390 -4 -98 -12 -164
-31 -240 -42 -163 -51 -275 -38 -431 20 -241 58 -413 168 -764 87 -278 106
-375 106 -545 0 -104 -5 -156 -21 -227 -18 -75 -20 -98 -11 -132 9 -36 8 -46
-13 -88 -13 -26 -32 -73 -42 -103 -20 -61 -48 -114 -112 -208 -24 -35 -45 -75
-49 -90 -3 -15 -12 -57 -21 -94 -14 -56 -14 -69 -3 -83 7 -9 20 -14 29 -13 9
2 23 -8 33 -23 14 -23 27 -29 74 -35 37 -4 64 -3 76 5 24 15 26 14 30 -11 3
-20 10 -23 54 -26 50 -3 52 -2 64 30 11 31 12 32 20 11 12 -28 40 -43 85 -43
45 0 95 45 95 85 0 14 7 28 15 31 29 11 56 91 66 190 6 72 16 110 34 146 18
35 25 63 25 106 0 33 6 66 14 78 34 48 37 97 16 242 -15 100 -21 194 -22 338
-1 218 5 281 88 844 40 273 45 328 40 415 -12 193 -52 369 -126 555 -22 54
-44 127 -51 162 -11 60 -10 67 19 153 32 92 48 187 77 450 34 314 78 690 113
965 36 288 49 570 30 675 l-7 40 44 -3 c43 -4 45 -5 38 -31 -4 -14 -8 -109 -7
-211 0 -152 6 -236 37 -475 46 -364 86 -703 98 -820 27 -295 60 -502 90 -580
38 -96 32 -164 -26 -315 -83 -220 -119 -374 -131 -563 -5 -89 0 -142 40 -412
86 -591 89 -621 88 -852 -1 -140 -7 -244 -17 -310 -23 -141 -22 -203 4 -253
14 -27 21 -59 21 -95 0 -40 7 -69 25 -103 18 -36 28 -74 34 -146 10 -99 37
-179 66 -190 8 -3 15 -17 15 -31 0 -40 50 -85 95 -85 45 0 73 15 85 43 8 21 9
20 20 -11 12 -32 14 -33 64 -30 44 3 51 6 54 26 4 25 6 26 30 11 12 -8 39 -9
76 -5 47 6 60 12 74 35 10 15 24 25 33 23 9 -1 22 4 29 13 11 14 11 27 -3 83
-9 37 -18 79 -21 94 -4 15 -25 55 -49 90 -64 94 -92 147 -112 208 -10 30 -28
76 -42 102 -21 43 -22 53 -12 91 8 35 7 55 -6 103 -11 39 -19 113 -22 219 -6
197 4 253 112 610 123 408 157 589 158 840 1 120 -3 179 -17 235 -54 232 -60
268 -60 375 0 89 4 120 21 160 11 28 36 97 56 155 19 58 54 158 77 223 112
318 168 739 157 1177 -9 323 -34 480 -115 715 -60 174 -71 225 -72 323 0 45
-12 189 -26 320 -20 190 -24 256 -17 332 10 121 9 138 -28 328 -40 208 -42
366 -5 493 23 80 126 355 146 391 17 31 51 188 57 268 3 44 9 80 13 80 4 0 12
-19 19 -42 51 -175 161 -397 235 -478 18 -19 49 -71 70 -114 20 -44 58 -112
85 -150 26 -39 74 -115 106 -169 88 -149 192 -260 431 -462 71 -60 188 -164
259 -231 l131 -122 13 -63 c16 -82 60 -174 109 -230 21 -24 59 -75 84 -114 46
-69 103 -135 118 -135 5 0 15 -3 23 -6 9 -3 24 3 35 14 20 20 20 20 37 -20 35
-88 89 -130 123 -96 19 19 15 38 -24 118 -43 89 -77 190 -69 199 8 7 65 -58
65 -72 0 -5 22 -55 49 -111 51 -105 76 -131 122 -124 21 3 24 8 22 38 -1 19
-19 73 -39 120 -74 172 -85 202 -80 207 2 3 10 2 15 -2 17 -10 80 -112 107
-173 31 -70 50 -92 81 -92 38 0 49 38 29 101 -24 73 -87 194 -162 314 -55 88
-64 109 -64 149 0 39 3 46 20 46 11 0 34 -9 52 -20 36 -22 79 -26 109 -10 53
29 -4 90 -155 166 l-111 56 -110 -7 -110 -7 -27 29 c-61 65 -143 195 -224 355
-188 372 -289 520 -515 753 -104 107 -108 113 -144 210 -21 55 -57 138 -80
185 -54 108 -70 165 -89 322 -39 310 -151 539 -354 725 -59 54 -120 111 -137
126 -38 35 -134 81 -202 97 -36 8 -77 29 -125 66 -40 29 -142 93 -227 141 -85
48 -177 108 -204 133 l-50 46 -10 112 c-10 110 -9 113 17 171 21 47 28 81 32
158 3 54 12 139 21 188 19 103 20 359 2 489 -21 154 -77 244 -188 300 -105 54
-261 70 -383 40z m298 -25 c118 -36 208 -121 234 -220 35 -129 40 -423 10
-604 -11 -66 -20 -151 -20 -190 0 -111 -47 -193 -162 -288 -162 -133 -319
-112 -507 67 -72 69 -101 131 -101 220 0 39 -10 129 -21 200 -19 113 -21 157
-16 321 7 210 19 281 63 352 89 144 315 205 520 142z m-345 -1367 c5 -13 9
-44 10 -70 0 -26 4 -56 9 -67 15 -38 23 11 12 78 -5 34 -9 63 -7 65 1 1 26 -9
56 -23 68 -31 154 -33 218 -5 24 11 45 20 48 20 2 0 3 -31 1 -70 -2 -41 1 -69
7 -70 6 0 11 23 13 52 4 84 8 92 81 165 l69 68 7 -137 c4 -75 4 -164 0 -197
-5 -40 -3 -61 3 -61 6 0 14 36 18 80 l7 81 39 -40 c22 -21 105 -76 184 -121
136 -77 294 -176 294 -183 0 -3 -141 -11 -230 -11 -30 -1 -86 8 -124 18 -56
15 -79 28 -113 63 -41 41 -63 53 -63 35 0 -12 71 -78 100 -93 14 -7 42 -17 62
-23 29 -9 -1 -11 -155 -11 -118 0 -207 -5 -229 -12 -21 -6 -38 -10 -38 -8 0 2
16 27 35 57 39 58 63 124 50 136 -4 4 -10 0 -13 -8 -13 -38 -85 -166 -104
-187 -15 -16 -33 -23 -60 -23 -34 0 -42 5 -73 48 -19 26 -47 75 -62 110 -29
66 -50 82 -39 31 8 -40 65 -134 106 -176 18 -18 28 -33 23 -33 -5 0 -19 11
-31 24 -29 34 -83 41 -302 40 -116 0 -171 3 -147 8 21 4 52 15 70 24 34 17
107 83 107 96 0 18 -22 6 -63 -35 -61 -61 -138 -83 -272 -78 -55 2 -124 4
-152 5 -29 1 -53 2 -53 4 0 7 207 136 304 188 59 32 130 78 156 102 27 23 51
39 53 35 3 -5 8 -38 12 -75 4 -38 12 -68 17 -68 6 0 7 23 3 61 -4 33 -4 123 0
199 l7 139 70 -62 c38 -34 74 -72 79 -85z m-536 -470 l50 -7 -50 -26 c-27 -15
-52 -34 -53 -43 -3 -14 7 -11 50 12 29 17 77 35 106 41 68 14 416 14 482 0 43
-9 50 -14 50 -34 0 -13 -4 -27 -10 -30 -13 -8 -13 -35 0 -35 6 0 14 10 19 23
8 20 15 22 81 21 66 0 74 -2 81 -22 11 -28 34 -30 25 -2 -3 11 -9 29 -12 39
-12 38 27 46 251 49 229 4 303 -5 374 -44 47 -26 61 -29 61 -14 0 5 -23 21
-51 36 -28 14 -49 27 -47 29 10 11 182 14 251 5 98 -12 169 -46 250 -118 35
-31 98 -88 140 -125 83 -74 156 -175 217 -302 54 -114 59 -142 9 -60 -78 130
-225 304 -297 351 -71 48 -258 144 -278 144 -31 0 -8 -22 48 -44 82 -33 216
-114 267 -161 54 -49 144 -159 211 -256 85 -123 126 -262 104 -345 -6 -21 -8
-20 -73 20 -91 56 -242 186 -300 260 -27 34 -69 96 -95 138 -36 60 -62 88
-116 128 -39 29 -89 77 -113 108 -24 31 -58 67 -76 79 -80 54 -271 97 -271 60
0 -11 15 -16 68 -19 49 -3 86 -13 140 -38 63 -29 79 -42 115 -93 24 -34 65
-75 97 -97 80 -55 94 -69 124 -126 31 -60 43 -154 31 -259 -6 -59 -11 -73 -44
-109 -21 -22 -57 -69 -80 -103 -88 -130 -163 -168 -354 -182 -140 -9 -220 -2
-354 34 -114 30 -271 108 -283 140 -5 13 -5 153 -1 313 l7 291 30 57 c27 54
44 71 139 138 32 23 8 32 -30 11 -87 -46 -155 -154 -155 -245 0 -22 -4 -40
-10 -40 -5 0 -10 18 -10 40 0 92 -67 198 -154 245 -38 21 -63 12 -31 -11 100
-71 112 -82 140 -139 l30 -59 6 -290 c4 -160 3 -300 -2 -312 -12 -33 -192
-119 -314 -150 -81 -21 -124 -26 -230 -27 -221 -2 -335 38 -412 143 -33 44
-99 129 -138 177 -18 22 -20 39 -20 151 0 121 1 130 30 186 24 48 43 68 107
113 49 36 92 77 117 113 34 48 51 62 113 90 54 25 91 35 141 38 52 3 67 8 67
19 0 22 -107 12 -182 -16 -79 -30 -116 -58 -165 -122 -23 -31 -73 -78 -111
-106 -51 -37 -79 -67 -107 -114 -81 -133 -130 -192 -255 -300 -57 -49 -214
-159 -228 -159 -2 0 -3 40 0 89 4 83 7 95 56 192 65 128 209 312 295 375 59
43 230 135 275 146 26 7 30 28 5 28 -41 -1 -252 -117 -323 -177 -90 -77 -245
-289 -299 -408 -31 -69 -17 -11 20 86 48 125 178 326 233 363 13 8 61 50 108
93 91 85 157 126 235 145 60 16 209 21 278 10z m795 -37 c-7 -8 -17 -15 -23
-15 -6 0 -2 7 9 15 25 19 30 19 14 0z m-1231 -588 c-5 -29 -5 -84 -1 -121 8
-65 8 -67 -12 -62 -67 19 -66 19 -66 -3 0 -16 6 -21 25 -21 28 0 79 -23 108
-48 11 -10 17 -30 17 -56 0 -73 -33 -281 -46 -291 -8 -5 -31 -62 -53 -126 -67
-194 -129 -314 -215 -417 -20 -24 -36 -48 -36 -53 0 -5 -13 -15 -30 -24 -39
-20 -269 -75 -346 -82 -83 -8 -89 3 -80 141 14 218 58 354 203 638 86 168 114
202 222 268 81 50 243 201 286 268 15 23 29 42 30 42 1 0 -2 -24 -6 -53z
m2356 -3 c54 -79 213 -223 305 -278 82 -49 135 -111 164 -193 8 -21 33 -77 56
-123 66 -130 149 -347 160 -415 5 -33 12 -105 15 -160 8 -129 1 -141 -82 -132
-86 9 -313 65 -344 85 -49 31 -147 163 -198 266 -27 56 -68 155 -91 220 -22
66 -44 124 -49 130 -16 22 -47 283 -37 320 7 30 80 76 120 76 21 0 27 4 24 18
-2 9 -8 16 -14 16 -5 -1 -23 -5 -40 -8 l-30 -7 6 63 c4 35 4 89 0 121 -3 31
-5 57 -5 57 1 0 19 -25 40 -56z m-2843 -389 l-24 -40 6 50 c3 28 12 86 18 130
l13 80 5 -90 c5 -81 3 -94 -18 -130z m3307 -5 c0 -8 -8 -1 -18 15 -16 25 -19
41 -13 95 l6 65 12 -80 c7 -44 13 -87 13 -95z m-2711 -59 c-19 -58 -32 -119
-37 -186 l-8 -100 -2 75 c0 41 6 116 14 165 8 50 15 117 15 150 l1 60 23 -39
24 -38 -30 -87z m2138 -44 c9 -60 14 -111 11 -113 -3 -3 -8 14 -12 37 -4 23
-20 79 -35 123 l-27 82 21 37 21 36 2 -47 c2 -26 10 -96 19 -155z m-1072 118
c6 -17 -2 -45 -14 -45 -4 0 -10 7 -14 15 -6 17 2 45 14 45 4 0 10 -7 14 -15z
m1037 -144 c23 -90 25 -238 5 -331 -17 -76 -33 -126 -76 -235 -18 -44 -54
-147 -81 -229 -26 -82 -60 -166 -74 -187 -27 -42 -24 -51 9 -20 l21 20 1 -102
c0 -103 8 -161 46 -361 19 -98 20 -119 10 -210 -10 -82 -16 -104 -33 -118 -12
-10 -29 -18 -38 -18 -68 0 -169 -73 -237 -171 -32 -46 -25 -66 8 -23 64 83
143 155 182 165 23 6 57 17 77 24 l36 12 11 -96 c6 -53 16 -166 22 -251 18
-251 27 -329 54 -443 49 -206 56 -451 20 -727 -38 -299 -57 -377 -182 -740
-33 -96 -72 -221 -86 -277 -26 -101 -26 -104 -10 -180 18 -90 48 -164 74 -188
19 -18 64 -17 104 0 17 7 18 6 11 -11 -4 -10 -18 -57 -31 -104 -13 -47 -29
-98 -36 -115 -12 -28 -13 -23 -18 67 -3 58 -10 102 -18 110 -10 10 -11 -9 -6
-93 8 -121 -2 -162 -49 -216 -42 -48 -82 -63 -165 -63 -139 0 -208 75 -219
239 -6 80 -6 81 18 81 13 0 38 9 55 19 27 16 37 35 62 113 17 51 45 131 62
178 29 79 31 92 26 185 -5 121 -23 210 -83 415 -65 221 -91 330 -106 450 -13
108 -34 140 -30 47 4 -96 35 -240 93 -437 90 -302 101 -348 107 -455 5 -108 8
-96 -77 -340 -42 -120 -48 -132 -81 -145 -58 -25 -141 24 -183 109 -26 51 -45
177 -53 356 -6 137 11 245 71 458 25 88 51 187 57 220 16 82 13 339 -5 468
-16 108 -67 303 -108 404 l-24 58 61 61 c33 34 119 130 190 214 128 151 226
241 332 305 50 31 72 56 36 43 -91 -34 -257 -181 -414 -366 -109 -130 -225
-246 -283 -284 -32 -22 -50 -26 -106 -26 -57 0 -73 4 -111 29 -59 39 -149 129
-256 254 -171 201 -285 308 -394 370 -50 29 -59 32 -59 17 0 -5 17 -18 38 -29
106 -54 230 -171 418 -396 56 -66 117 -135 137 -152 l35 -31 -35 -93 c-77
-204 -114 -414 -115 -655 0 -152 8 -200 81 -461 66 -236 75 -361 42 -603 -14
-108 -23 -144 -44 -177 -59 -94 -156 -129 -204 -74 -14 18 -44 96 -109 289
-44 132 -29 245 86 632 52 176 100 400 100 467 0 15 -5 23 -12 21 -7 -3 -17
-45 -25 -104 -16 -126 -24 -162 -83 -364 -133 -452 -138 -556 -36 -792 9 -21
21 -60 27 -87 12 -58 63 -111 106 -111 l26 0 -6 -82 c-11 -178 -79 -245 -240
-237 -92 5 -136 32 -172 103 -20 39 -25 65 -25 121 0 38 4 84 9 101 5 17 5 37
0 45 -14 23 -29 -37 -31 -123 l-2 -80 -17 34 c-9 18 -22 60 -29 93 -7 33 -18
75 -26 94 -15 36 -11 52 8 33 7 -7 29 -12 49 -12 55 0 83 42 115 170 l26 101
-22 92 c-12 51 -64 218 -115 372 -100 297 -122 390 -154 631 -41 309 -37 542
15 762 33 144 44 213 44 302 0 82 36 479 44 487 2 2 17 -2 33 -10 15 -8 48
-18 72 -22 36 -6 56 -18 106 -69 34 -33 73 -77 88 -96 14 -19 29 -31 33 -27
17 17 -148 193 -192 202 -126 29 -135 35 -145 106 -14 98 -9 182 17 314 18 89
28 177 31 279 l6 148 19 -31 c11 -17 27 -31 36 -31 13 0 12 4 -5 23 -32 36
-59 95 -96 212 -19 61 -53 160 -75 220 -96 267 -107 477 -33 668 l11 29 61
-56 c33 -31 71 -59 84 -62 17 -4 26 -17 34 -51 7 -25 25 -71 41 -103 l30 -58
-28 8 c-66 18 -115 56 -142 110 -8 16 -15 20 -18 12 -5 -17 35 -75 68 -97 23
-16 30 -32 44 -103 9 -46 28 -106 42 -133 l24 -49 -35 0 c-61 0 -129 49 -140
101 -7 29 -22 46 -32 36 -6 -7 32 -112 58 -155 13 -23 19 -52 19 -91 0 -32 7
-77 14 -100 8 -22 17 -65 20 -95 9 -114 65 -226 111 -226 9 0 72 55 139 123
102 102 136 143 202 251 127 206 232 297 348 300 l50 1 2 -170 c3 -199 -8
-258 -57 -299 -27 -23 -40 -26 -102 -26 -84 0 -181 -14 -252 -36 -74 -23 -215
-95 -215 -110 0 -8 34 5 88 32 48 24 114 51 147 59 71 19 323 36 346 24 26
-14 39 -65 39 -159 0 -109 -17 -161 -76 -228 -55 -63 -109 -96 -192 -117 -83
-21 -129 -13 -182 32 -39 34 -137 169 -174 241 -10 19 -20 32 -22 29 -18 -18
135 -260 185 -292 17 -11 31 -22 30 -25 0 -3 -19 -19 -42 -35 -55 -40 -69 -83
-70 -210 -1 -131 17 -190 104 -341 38 -67 103 -192 145 -278 66 -137 94 -181
94 -146 0 16 -152 315 -219 430 -34 58 -70 129 -82 159 -26 70 -35 190 -20
263 22 104 71 140 193 143 67 2 88 7 155 40 77 38 80 38 194 38 110 0 119 -1
175 -30 71 -37 143 -53 204 -47 34 4 56 0 90 -18 66 -34 84 -72 88 -188 5
-129 -13 -197 -92 -340 -119 -215 -238 -462 -221 -458 9 2 29 32 44 69 26 62
130 261 225 432 54 97 69 165 64 293 -4 121 -24 167 -87 203 l-43 23 35 29
c59 49 198 271 177 284 -5 3 -16 -10 -24 -29 -25 -59 -116 -194 -153 -227 -75
-65 -132 -71 -253 -27 -40 15 -72 38 -117 84 -74 75 -93 126 -93 249 0 89 13
141 39 154 23 12 275 -5 346 -24 33 -9 100 -36 148 -61 92 -46 118 -40 31 8
-124 69 -275 108 -416 108 -57 0 -71 4 -97 26 -49 41 -60 100 -59 302 l2 172
35 0 c123 -2 252 -111 368 -312 46 -80 270 -330 319 -356 26 -14 57 -4 81 27
21 27 54 144 48 171 -3 14 4 56 15 95 11 38 20 91 20 117 0 34 11 69 40 129
41 85 56 156 24 114 -8 -11 -20 -37 -26 -59 -14 -47 -57 -76 -111 -76 l-37 0
24 49 c14 27 33 87 42 133 14 71 21 87 44 103 33 22 73 80 68 97 -3 8 -10 4
-18 -12 -27 -54 -76 -92 -142 -110 l-28 -8 30 58 c16 32 34 78 40 103 10 37
20 51 63 81 29 19 61 49 72 66 l20 30 14 -32 c7 -18 22 -66 32 -107z m-1071
93 c13 -34 13 -303 -1 -341 -9 -27 -15 -31 -51 -31 -112 -2 -236 -111 -368
-326 -91 -148 -130 -191 -184 -201 -34 -7 -76 7 -76 25 0 6 -4 10 -10 10 -15
0 -12 -26 6 -40 8 -8 31 -16 50 -19 l34 -6 -55 -58 c-45 -47 -61 -58 -83 -55
-39 4 -71 73 -82 179 -5 46 -16 106 -25 133 -8 27 -15 63 -15 80 0 28 1 29 14
10 8 -10 18 -16 22 -12 4 5 0 16 -8 25 -9 10 -25 37 -37 60 l-21 43 32 -20
c20 -12 51 -20 76 -20 39 0 48 -5 87 -47 30 -33 44 -43 45 -31 0 9 -6 21 -13
25 -20 13 -72 84 -96 132 -22 42 -56 179 -47 188 10 11 87 -22 112 -48 15 -16
35 -29 43 -29 9 0 -3 19 -31 48 -44 44 -99 143 -113 204 l-7 27 54 -15 c29 -7
103 -17 165 -20 l112 -7 -47 -31 c-66 -43 -65 -43 -58 -55 4 -6 30 5 69 32 44
30 102 55 197 86 132 43 262 100 275 121 11 17 25 11 35 -16z m76 15 c11 -18
163 -84 274 -119 117 -36 205 -77 234 -109 18 -20 36 -20 36 -1 0 6 -25 26
-55 46 -30 20 -55 38 -55 40 0 1 46 3 103 2 60 0 130 7 171 16 38 9 71 14 73
12 3 -3 -1 -22 -7 -43 -24 -72 -62 -138 -108 -185 -28 -30 -40 -48 -31 -48 8
0 28 13 43 29 25 26 102 59 112 48 9 -9 -25 -146 -47 -188 -24 -48 -76 -119
-96 -132 -7 -4 -13 -16 -13 -25 1 -12 15 -2 45 31 38 42 48 47 85 47 23 0 50
5 61 11 20 10 20 10 3 -23 -9 -18 -23 -41 -32 -51 -8 -9 -12 -20 -9 -24 4 -4
14 2 22 13 14 18 14 17 15 -12 0 -18 -9 -63 -21 -100 -13 -43 -19 -82 -16
-107 3 -22 -1 -62 -10 -90 -35 -117 -70 -127 -151 -39 l-53 57 30 5 c32 5 71
33 71 50 0 15 -7 13 -40 -12 -26 -19 -34 -20 -68 -10 -53 16 -125 94 -194 212
-100 168 -173 246 -277 293 -25 11 -62 20 -83 21 -32 1 -39 5 -48 30 -13 37
-13 306 0 340 10 27 24 33 36 15z m-46 -385 c0 -8 -4 -14 -10 -14 -5 0 -10 9
-10 21 0 11 5 17 10 14 6 -3 10 -13 10 -21z m-1910 -220 c-6 -32 -10 -79 -10
-104 0 -25 -9 -63 -19 -85 -33 -73 -142 -208 -274 -340 -125 -126 -277 -287
-346 -370 l-33 -40 25 45 c14 25 67 126 119 225 115 218 160 293 248 410 94
124 286 332 297 321 1 -1 -2 -29 -7 -62z m3923 -71 c172 -189 252 -307 405
-598 52 -99 105 -200 119 -225 l25 -45 -33 40 c-68 81 -220 244 -346 370 -122
123 -186 198 -246 291 -23 34 -29 58 -37 150 -6 60 -13 117 -16 128 -6 18 -5
18 17 3 12 -9 63 -60 112 -114z m-2013 -142 c0 -10 12 -36 26 -57 16 -24 22
-40 15 -42 -15 -5 -41 -56 -41 -82 0 -11 -4 -20 -10 -20 -5 0 -10 9 -10 20 0
25 -25 77 -39 82 -11 3 39 117 52 117 4 1 7 -7 7 -18z m1476 -28 c-8 -8 -36 5
-36 17 0 7 6 7 21 0 11 -7 18 -14 15 -17z m-3397 -25 c1 -3 -12 -11 -28 -16
l-29 -10 21 35 c18 32 22 34 28 17 4 -10 8 -22 8 -26z m446 32 c-3 -5 -11 -10
-16 -10 -6 0 -7 5 -4 10 3 6 11 10 16 10 6 0 7 -4 4 -10z m3408 -31 c15 -26
15 -27 -4 -22 -24 7 -31 17 -23 38 4 9 7 15 8 13 1 -2 9 -15 19 -29z m-3430 4
c3 -5 -14 -38 -37 -74 -22 -36 -63 -102 -90 -145 -103 -168 -144 -222 -246
-325 -71 -72 -126 -118 -170 -142 -52 -28 -103 -75 -249 -227 -165 -172 -186
-190 -197 -175 -12 15 -3 28 70 104 123 126 176 194 240 305 69 121 183 264
262 331 94 78 197 184 252 259 29 38 52 73 52 77 0 7 31 13 87 17 12 1 24 -1
26 -5z m3075 -13 c2 -5 26 -39 54 -77 55 -74 159 -180 252 -258 79 -67 193
-210 262 -331 64 -111 117 -179 241 -307 73 -75 84 -91 76 -109 -8 -18 -28 -1
-198 176 -148 153 -204 206 -254 234 -123 69 -268 226 -388 420 -143 230 -155
251 -148 263 8 12 98 3 103 -11z m-3229 -32 c-97 -140 -370 -393 -484 -447
-97 -46 -157 -95 -368 -301 -110 -107 -157 -145 -157 -127 0 2 34 40 76 83
177 185 285 324 313 406 26 77 44 108 83 144 51 49 152 110 223 136 36 12 65
27 65 31 0 15 -51 -2 -144 -48 l-88 -45 44 48 c24 26 50 56 58 67 8 12 32 31
53 43 32 18 47 21 115 16 56 -4 97 0 152 14 41 10 77 17 79 16 2 -2 -7 -18
-20 -36z m3356 16 c40 -9 100 -14 140 -13 76 4 126 -14 155 -55 8 -12 34 -42
58 -68 l44 -48 -88 45 c-93 46 -144 63 -144 48 0 -4 29 -19 65 -31 71 -26 172
-87 223 -136 39 -36 57 -67 83 -144 28 -82 136 -221 313 -406 42 -43 76 -81
76 -83 0 -18 -47 20 -157 127 -211 206 -271 255 -368 301 -99 47 -359 280
-456 409 -53 70 -59 84 -31 76 9 -3 49 -13 87 -22z m-1705 -299 c0 -36 21 -82
62 -135 l34 -45 -106 0 -106 0 34 45 c41 53 62 99 62 135 0 14 5 25 10 25 6 0
10 -11 10 -25z m-2285 -86 c-46 -110 -134 -225 -308 -405 -77 -81 -79 -82
-110 -71 -18 7 -34 13 -36 15 -3 1 22 31 55 65 33 34 96 105 139 157 109 130
282 320 291 320 2 0 -12 -36 -31 -81z m4685 -105 c19 -21 71 -82 115 -134 43
-52 106 -123 139 -157 33 -34 58 -64 55 -66 -2 -1 -17 -9 -34 -16 -29 -12 -30
-11 -110 71 -176 181 -264 297 -311 410 l-34 83 72 -76 c40 -41 89 -93 108
-115z m-4467 34 c-5 -7 -25 -33 -45 -58 -19 -25 -55 -82 -80 -127 -53 -94
-126 -188 -237 -305 -74 -78 -79 -81 -95 -65 -10 9 -23 17 -31 17 -7 0 -28 19
-46 41 l-33 42 95 91 c249 239 305 286 401 336 84 44 83 44 71 28z m4284 -96
c55 -45 155 -136 295 -272 l99 -95 -34 -37 c-19 -21 -39 -38 -45 -38 -6 0 -20
-9 -30 -20 -19 -21 -19 -20 -101 65 -114 121 -186 213 -239 308 -25 45 -61
102 -80 127 -20 25 -40 50 -45 57 -16 22 130 -56 180 -95z m-4291 -151 c-4 -5
-30 -28 -59 -51 l-52 -42 54 51 c53 50 68 61 57 42z m4209 -72 c11 -13 -4 -4
-32 20 -29 23 -56 48 -60 54 -10 17 68 -46 92 -74z m-4937 -89 c80 -7 97 -12
130 -39 21 -16 47 -45 57 -64 12 -23 29 -38 49 -44 21 -6 38 -21 51 -45 18
-34 18 -42 6 -100 -16 -78 -61 -172 -105 -218 -18 -19 -39 -46 -46 -60 -7 -14
-37 -58 -67 -98 -56 -76 -95 -104 -115 -84 -8 8 2 32 36 89 43 72 59 133 36
133 -14 0 -47 -55 -120 -197 -63 -123 -90 -160 -109 -148 -17 10 -14 25 20 95
33 68 79 195 79 216 0 6 -9 14 -21 17 -16 4 -30 -4 -55 -31 -19 -20 -34 -42
-34 -48 0 -6 -13 -38 -30 -70 -16 -32 -36 -76 -44 -96 -22 -55 -86 -88 -86
-45 0 11 59 157 110 273 25 57 22 84 -10 84 -27 0 -101 -107 -133 -191 -10
-25 -27 -56 -38 -68 -19 -20 -23 -21 -37 -8 -10 11 -13 25 -8 50 9 49 84 199
156 313 79 122 92 156 84 200 -8 46 -42 55 -94 25 -45 -25 -98 -28 -107 -5 -9
25 36 62 149 119 114 59 130 62 296 45z m5869 -45 c114 -57 160 -93 150 -119
-9 -23 -62 -20 -107 5 -52 30 -86 21 -94 -25 -8 -44 5 -78 84 -200 72 -114
147 -264 156 -313 5 -25 2 -39 -8 -50 -14 -13 -18 -12 -37 8 -11 12 -28 43
-38 68 -32 84 -106 191 -133 191 -32 0 -35 -27 -10 -84 51 -116 110 -262 110
-273 0 -43 -64 -10 -86 45 -8 20 -28 64 -44 96 -17 32 -30 64 -30 70 0 6 -15
28 -34 48 -25 27 -39 35 -55 31 -12 -3 -21 -11 -21 -17 0 -21 46 -148 79 -216
34 -70 37 -85 20 -95 -19 -12 -46 25 -109 148 -73 142 -106 197 -120 197 -23
0 -7 -61 36 -133 34 -57 44 -81 36 -89 -20 -20 -59 8 -115 84 -30 40 -60 84
-67 98 -7 14 -28 41 -46 60 -41 42 -87 136 -104 208 -11 48 -10 56 11 100 18
35 32 49 54 55 20 6 38 22 53 47 37 64 81 91 164 100 170 17 185 15 305 -45z
m-5866 -572 c-10 -21 -27 -47 -36 -58 -9 -11 -2 8 16 43 18 34 34 60 36 58 3
-2 -5 -21 -16 -43z m5595 -25 c13 -27 22 -48 19 -48 -7 0 -65 103 -65 115 0
13 15 -9 46 -67z m-2922 -438 l54 -31 7 -97 c10 -132 0 -337 -25 -517 -11 -82
-31 -247 -45 -365 -42 -369 -48 -419 -55 -415 -4 2 -10 33 -13 67 -4 35 -29
146 -57 248 -70 258 -73 281 -66 455 8 174 27 321 56 435 21 83 79 250 86 250
2 0 29 -14 58 -30z m315 -55 c65 -181 95 -348 107 -595 8 -171 3 -205 -66
-460 -27 -101 -53 -213 -56 -247 -4 -35 -10 -65 -14 -68 -7 -4 -13 45 -55 415
-14 118 -34 283 -45 365 -25 182 -35 387 -26 515 l8 95 56 32 c31 17 58 32 59
32 0 1 15 -37 32 -84z m-1267 -103 c-5 -174 4 -303 39 -542 27 -191 57 -303
147 -565 44 -126 90 -272 102 -324 21 -84 22 -100 12 -161 -16 -92 -49 -178
-74 -191 -48 -26 -116 24 -146 108 -67 187 -118 426 -148 698 -24 224 -25 657
0 810 31 198 60 335 70 335 2 0 1 -76 -2 -168z m2151 73 c47 -211 61 -353 61
-625 0 -289 -16 -481 -60 -720 -39 -213 -107 -434 -147 -477 -28 -31 -80 -47
-106 -34 -24 13 -57 100 -73 191 -11 63 -10 75 17 176 15 60 61 206 102 324
90 260 115 359 150 600 24 161 28 215 28 422 0 130 3 231 6 225 4 -7 14 -43
22 -82z m-1333 -1931 c-5 -33 -21 -92 -35 -132 -34 -96 -32 -144 10 -270 l36
-105 -24 -26 c-14 -14 -32 -39 -42 -54 -10 -15 -19 -26 -21 -24 -2 1 3 43 11
92 8 50 15 100 15 113 0 34 -18 26 -24 -10 -24 -158 -43 -249 -73 -343 -34
-109 -35 -111 -30 -255 4 -119 11 -172 40 -295 73 -314 127 -724 127 -969 0
-112 6 -217 15 -276 30 -187 30 -219 1 -272 -21 -39 -24 -56 -19 -96 4 -40 1
-57 -21 -99 -20 -38 -30 -76 -37 -149 -11 -108 -35 -176 -68 -194 -12 -6 -19
-15 -16 -20 7 -11 -13 -63 -28 -72 -7 -4 -31 -8 -55 -8 -42 0 -44 2 -59 40
-12 31 -19 37 -29 29 -7 -6 -14 -22 -16 -36 -2 -14 -11 -31 -20 -37 -25 -15
-72 4 -76 32 -4 26 -14 28 -48 5 -21 -14 -31 -14 -58 -5 -18 7 -40 12 -48 12
-9 0 -21 14 -27 31 -8 24 -15 29 -30 24 -11 -3 -22 -2 -25 3 -3 5 5 52 18 104
19 78 34 110 77 174 29 44 70 121 91 173 21 51 48 112 62 135 73 126 78 352
21 976 -13 146 -34 384 -45 530 -31 400 -67 661 -120 875 -16 66 -30 131 -30
145 1 25 1 25 17 -5 8 -16 22 -37 29 -46 8 -9 21 -40 30 -70 9 -30 33 -90 54
-134 21 -44 41 -89 44 -99 5 -14 10 -16 18 -8 8 8 -3 40 -40 119 -73 158 -72
154 -19 126 22 -12 56 -17 107 -17 63 -1 83 4 123 26 27 16 47 22 47 15 0 -7
-18 -50 -40 -97 -39 -83 -50 -130 -30 -130 6 0 10 7 10 17 0 9 18 55 40 103
22 47 43 102 46 121 4 19 15 60 25 91 12 35 19 86 19 131 0 73 0 73 33 89 18
9 46 31 63 50 16 19 30 34 31 33 1 0 -2 -28 -7 -61z m574 -19 l36 -20 0 -75
c1 -41 8 -93 16 -115 8 -22 19 -62 24 -89 6 -27 28 -88 50 -136 22 -48 40 -95
40 -104 0 -10 6 -16 13 -13 19 6 9 44 -34 132 -21 45 -39 86 -39 92 0 7 21 0
48 -15 39 -22 59 -27 122 -26 51 0 85 5 107 17 53 28 54 32 -19 -126 -37 -79
-48 -111 -40 -119 8 -8 13 -6 18 8 3 10 23 55 44 99 21 44 46 106 55 137 9 32
21 61 27 64 5 4 17 23 25 43 23 52 26 25 8 -60 -75 -350 -107 -565 -130 -899
-9 -124 -29 -364 -45 -535 -39 -407 -49 -612 -40 -765 9 -140 21 -196 56 -256
13 -22 42 -84 63 -136 21 -52 62 -130 91 -173 42 -63 57 -96 76 -173 13 -52
21 -99 18 -104 -3 -5 -14 -6 -25 -3 -15 5 -22 0 -30 -24 -6 -17 -18 -31 -27
-31 -8 0 -30 -5 -48 -12 -27 -9 -37 -9 -58 5 -34 23 -44 21 -48 -5 -4 -28 -51
-47 -76 -32 -9 6 -18 23 -20 37 -2 14 -9 30 -16 36 -10 8 -17 2 -29 -29 -15
-38 -17 -40 -59 -40 -24 0 -48 4 -55 8 -15 9 -35 61 -28 72 3 5 -4 14 -16 20
-33 18 -57 86 -68 192 -7 68 -17 113 -36 153 -22 46 -26 64 -20 101 5 36 2 51
-14 78 -31 49 -35 109 -16 211 11 58 20 177 25 335 10 344 48 618 152 1100 30
142 28 299 -6 410 -43 139 -55 190 -70 294 -15 97 -20 115 -32 103 -6 -5 6
-105 23 -202 l5 -30 -17 25 c-10 14 -31 39 -47 56 l-29 31 36 105 c42 125 44
174 11 268 -14 39 -28 91 -31 117 -4 27 -9 57 -12 68 -3 14 4 9 25 -15 16 -20
46 -44 66 -55z m-1135 -526 c24 -135 26 -157 6 -111 -8 19 -26 47 -39 62 -21
25 -23 34 -15 72 4 24 8 61 9 83 1 62 15 25 39 -106z m1657 54 c10 -74 10 -79
-12 -103 -12 -14 -29 -41 -38 -60 -16 -35 -16 -35 -12 -5 15 103 41 245 46
245 3 0 11 -35 16 -77z m-1042 -133 c40 -124 67 -275 73 -395 4 -94 0 -143
-31 -335 -43 -276 -86 -578 -87 -622 -1 -33 -1 -33 -10 7 -5 22 -20 123 -34
225 -14 102 -46 286 -71 410 -71 349 -65 488 27 660 49 90 87 142 99 135 5 -3
21 -42 34 -85z m509 -36 c100 -180 107 -337 32 -684 -19 -85 -48 -256 -66
-380 -17 -124 -33 -236 -36 -250 -4 -14 -16 48 -29 145 -12 94 -41 288 -63
433 -43 277 -48 351 -30 479 12 88 72 332 90 365 12 22 12 22 38 -10 15 -17
44 -61 64 -98z m-1147 5 c34 -69 83 -288 99 -438 8 -75 21 -226 30 -336 8
-110 27 -319 41 -465 40 -405 37 -799 -6 -825 -22 -14 -21 53 1 149 19 80 23
127 23 231 -2 155 -20 249 -99 515 -138 459 -168 614 -169 875 -1 151 3 206
17 268 12 49 23 77 30 75 7 -2 22 -24 33 -49z m1720 -21 c22 -95 30 -330 14
-456 -17 -140 -62 -343 -115 -527 -124 -421 -124 -420 -149 -600 -13 -91 9
246 35 535 62 693 70 767 90 855 40 170 75 265 99 265 5 0 16 -33 26 -72z
m-225 -1899 c13 -55 19 -108 15 -123 -17 -70 -45 38 -47 184 -1 104 2 138 8
75 2 -22 13 -83 24 -136z M3515 7400 c-28 -29 -29 -54 -1 -31 18 15 50 1 66
-30 17 -30 25 -380 11 -468 -11 -69 -9 -93 5 -78 3 3 8 42 11 86 3 45 9 79 12
76 3 -4 8 -40 12 -81 5 -69 12 -94 24 -83 2 3 0 32 -5 65 -12 72 -12 322 0
424 6 59 13 78 31 93 22 18 24 18 36 1 7 -10 16 -14 20 -11 4 4 -3 20 -14 35
-19 25 -26 27 -99 30 -77 3 -80 2 -109 -28z m114 -187 c0 -60 -4 -117 -9 -128
-5 -13 -9 27 -9 108 -1 78 3 127 9 127 6 0 10 -42 9 -107z"/>
</g>
</svg>
