<?xml version="1.0" standalone="no"?>
<!DOCTYPE svg PUBLIC "-//W3C//DTD SVG 20010904//EN"
 "http://www.w3.org/TR/2001/REC-SVG-20010904/DTD/svg10.dtd">
<svg version="1.0" xmlns="http://www.w3.org/2000/svg"
 width="725.000000pt" height="1258.000000pt" viewBox="0 0 725.000000 1258.000000"
 preserveAspectRatio="xMidYMid meet">
<metadata>
Created by potrace 1.13, written by Peter Selinger 2001-2015
</metadata>
<g transform="translate(0.000000,1258.000000) scale(0.100000,-0.100000)"
fill="#000000" stroke="none">

<!-- Body Background -->
<path id="body-background" d="M3468 11750 c-93 -20 -186 -62 -231 -104 -110 -103 -151 -428 -92
-731 16 -77 30 -158 31 -180 2 -22 9 -97 15 -167 6 -70 9 -138 5 -152 -10 -42
-64 -94 -150 -145 -144 -85 -255 -159 -378 -254 -123 -95 -161 -118 -260 -161
-32 -14 -79 -44 -105 -69 -26 -24 -82 -68 -123 -99 -87 -64 -144 -141 -220
-300 -76 -160 -121 -330 -136 -509 -6 -70 -12 -88 -46 -142 -59 -96 -99 -177
-119 -239 -30 -101 -84 -182 -194 -294 -183 -187 -259 -311 -445 -729 -120
-270 -167 -357 -227 -421 -35 -37 -45 -42 -115 -53 -65 -10 -90 -20 -151 -61
-82 -53 -107 -81 -107 -121 0 -30 17 -47 57 -58 42 -11 40 -46 -5 -153 -53
-128 -97 -305 -83 -341 18 -46 65 -33 81 21 20 66 63 152 77 152 16 0 16 -4
-3 -131 -17 -114 -18 -126 -16 -150 2 -20 26 -31 47 -22 26 9 69 106 90 197 3
15 8 26 11 24 2 -3 -3 -46 -11 -95 -18 -106 -11 -143 29 -143 27 0 47 29 60
85 4 17 17 54 29 84 l22 55 5 -55 c5 -50 7 -54 32 -57 33 -4 57 30 89 125 11
34 34 81 51 105 45 61 69 132 75 218 3 41 12 86 21 100 36 58 138 163 322 330
283 256 340 324 455 531 25 46 64 106 85 134 21 27 59 92 84 143 36 72 66 114
138 190 105 112 143 181 209 385 23 70 45 127 50 127 11 0 15 -19 34 -153 25
-170 59 -289 125 -428 33 -71 71 -162 85 -203 49 -145 43 -316 -20 -636 -26
-132 -35 -201 -35 -280 0 -80 -6 -126 -25 -194 -32 -115 -42 -192 -60 -467
-13 -193 -20 -242 -46 -335 -74 -263 -92 -480 -70 -834 22 -349 59 -571 151
-918 27 -100 56 -235 64 -300 9 -64 20 -133 26 -152 19 -66 12 -309 -15 -500
-72 -505 -72 -692 -4 -940 12 -41 61 -181 109 -310 130 -347 167 -547 140
-760 -7 -52 -15 -122 -19 -155 -7 -65 -22 -87 -134 -196 -59 -58 -72 -93 -58
-147 19 -70 100 -125 274 -184 72 -25 110 -32 173 -32 73 -1 85 2 130 29 33
21 56 45 72 75 22 41 23 54 18 141 -5 86 -3 103 20 170 32 93 33 160 3 339
-34 202 -32 416 5 615 144 784 148 997 26 1377 -82 257 -88 341 -41 583 16 83
37 229 46 325 9 96 22 218 30 270 65 441 102 829 112 1170 5 219 13 260 48
260 34 0 45 -41 45 -170 0 -263 32 -647 94 -1110 24 -184 50 -393 56 -465 6
-71 23 -188 37 -260 31 -160 39 -295 24 -378 -7 -34 -32 -128 -57 -208 -128
-419 -125 -565 28 -1434 30 -165 29 -388 -1 -575 -30 -183 -29 -248 4 -344 25
-72 26 -84 17 -147 -17 -113 11 -183 93 -234 44 -27 56 -30 129 -29 63 0 101
7 173 32 174 59 255 114 274 184 14 54 1 89 -58 147 -112 109 -127 131 -134
196 -4 33 -12 103 -19 155 -27 213 10 413 140 760 48 129 97 269 109 310 68
248 68 435 -4 940 -27 191 -34 434 -15 500 6 19 17 88 26 152 8 65 37 200 64
300 64 241 96 397 120 581 44 346 51 766 15 946 -9 46 -32 140 -51 209 -30
109 -36 152 -49 351 -18 275 -28 352 -60 467 -19 68 -25 114 -25 194 0 79 -9
148 -35 280 -63 320 -69 491 -20 636 14 41 52 132 85 202 67 144 90 223 121
420 12 75 23 143 25 150 9 32 25 2 63 -115 63 -199 103 -272 209 -385 72 -76
101 -116 138 -190 25 -51 63 -116 84 -143 21 -28 60 -88 85 -134 115 -207 172
-275 455 -531 184 -167 286 -272 322 -330 9 -14 18 -59 21 -100 6 -86 30 -157
75 -218 17 -24 40 -71 51 -105 32 -95 56 -129 89 -125 25 3 27 7 32 57 l5 55
22 -55 c12 -30 25 -67 29 -84 12 -51 33 -85 55 -85 39 0 42 53 11 213 -10 50
1 74 17 35 5 -13 21 -62 35 -110 28 -94 47 -121 80 -116 18 3 21 9 20 43 -1
22 -7 69 -13 105 -24 133 -25 170 -8 170 20 0 47 -50 76 -140 12 -35 27 -67
34 -72 24 -15 48 -8 58 20 14 37 -29 205 -84 326 -22 49 -40 105 -41 125 -1
32 2 35 31 42 97 20 82 95 -33 169 -75 49 -116 65 -189 75 -94 14 -148 94
-315 470 -186 418 -261 540 -444 728 -111 112 -165 194 -195 295 -20 62 -60
143 -119 239 -34 54 -40 72 -46 142 -15 179 -60 349 -136 509 -74 155 -131
233 -214 295 -39 28 -95 74 -125 101 -30 27 -79 59 -110 73 -97 41 -135 65
-282 177 -79 59 -216 152 -304 205 -200 122 -209 134 -200 261 16 216 25 294
50 420 59 297 18 624 -92 726 -98 91 -307 138 -465 104z"/>

<!-- [FMA:13335] External Oblique -->
<path id="FMA:13335" class="muscle" d="M4383 7700 c-116 -103 -172 -119 -257 -74 -87 46 -114 17 -135 -151
-16 -120 -38 -329 -36 -332 0 -2 23 6 51 16 27 10 99 29 159 41 146 30 226 25
295 -18 28 -17 50 -30 50 -29 0 1 -11 58 -25 128 -32 166 -47 328 -37 412 5
37 7 67 6 67 -2 0 -34 -27 -71 -60z M2715 7683 c9 -96 -26 -398 -61 -516 -4
-13 6 -10 47 15 50 32 56 33 153 32 103 0 259 -30 319 -61 16 -8 30 -13 32
-11 1 2 -1 35 -6 73 -5 39 -15 131 -24 205 -25 229 -43 255 -140 205 -46 -23
-62 -26 -100 -21 -45 7 -133 64 -184 120 -37 40 -44 33 -36 -41z"/>

<!-- [FMA:13357] Latissimus Dorsi -->
<path id="FMA:13357" class="muscle" d="M3210 8885 c-39 -21 -133 -42 -265 -60 -66 -9 -169 -29 -230 -46 -74
-19 -134 -29 -182 -29 l-73 0 0 -64 c0 -189 57 -456 130 -612 28 -60 65 -149
82 -199 31 -89 32 -91 115 -160 160 -134 191 -131 364 32 122 115 199 244 249
413 12 41 34 100 49 130 41 81 45 118 21 182 -11 30 -39 79 -61 109 -42 56
-113 190 -144 272 -20 52 -19 52 -55 32z M3881 8818 c-37 -92 -77 -163 -139
-251 -57 -82 -76 -143 -62 -198 7 -23 18 -52 26 -64 8 -12 34 -80 58 -151 24
-71 54 -152 68 -179 38 -73 109 -164 184 -235 170 -158 205 -160 373 -15 61
52 72 68 90 122 12 34 50 125 86 200 41 87 74 176 89 238 28 113 56 318 56
405 l0 59 -72 0 c-49 0 -112 10 -192 31 -65 17 -170 37 -235 46 -94 12 -228
44 -286 70 -6 2 -26 -33 -44 -78z"/>

<!-- [FMA:13379] Rhomboids -->
<path id="FMA:13379" class="muscle" d="M3152 9114 c-5 -10 -24 -59 -41 -109 -18 -49 -44 -105 -58 -123 -22
-29 -23 -33 -7 -29 11 3 35 9 54 12 19 4 59 16 88 27 62 23 62 16 9 152 -29
75 -36 86 -45 70z M4004 9111 c4 -5 3 -11 -1 -13 -9 -3 -73 -158 -73 -175 0
-12 83 -46 140 -58 19 -3 43 -9 53 -12 15 -4 12 4 -12 38 -17 23 -31 46 -31
50 0 21 -63 179 -72 179 -5 0 -7 -4 -4 -9z"/>

<!-- [FMA:22314] Gluteus Maximus -->
<path id="FMA:22314" class="muscle" d="M3089 7123 c-58 -31 -191 -138 -234 -189 -64 -77 -66 -80 -86 -192
-10 -59 -37 -168 -59 -242 -21 -74 -44 -162 -50 -194 -21 -120 -8 -243 33
-323 46 -89 169 -173 297 -204 85 -21 276 -16 399 10 57 12 113 26 123 32 10
5 28 29 40 52 21 38 23 58 26 232 4 202 -10 445 -34 585 -18 105 -59 194 -128
279 -43 53 -70 75 -142 114 -105 58 -136 65 -185 40z M3944 7109 c-120 -63
-143 -80 -193 -143 -67 -84 -106 -171 -128 -281 -14 -73 -17 -154 -18 -435 -2
-446 -11 -422 176 -461 123 -26 314 -31 399 -10 128 31 251 115 297 204 41 80
54 203 33 323 -6 32 -29 120 -50 194 -22 74 -49 183 -59 242 -20 112 -21 115
-86 192 -44 53 -204 179 -248 195 -43 16 -59 14 -123 -20z"/>

<!-- [FMA:22315] Gluteus Medius -->
<path id="FMA:22315" class="muscle" d="M2745 7182 c-87 -41 -123 -128 -106 -250 6 -35 15 -70 21 -78 26 -31
112 12 184 93 53 59 178 158 240 190 l39 20 -74 18 c-41 10 -117 19 -169 22
-78 3 -102 0 -135 -15z M4215 7195 c-5 -2 -46 -11 -89 -21 l-79 -17 39 -20
c62 -32 187 -131 240 -190 72 -81 158 -124 184 -93 20 25 31 135 19 194 -21
104 -92 152 -224 151 -44 0 -84 -2 -90 -4z"/>

<!-- [FMA:22356] Biceps Femoris -->
<path id="FMA:22356" class="muscle" d="M2716 5860 c-9 -22 -16 -45 -16 -51 0 -5 -25 -72 -55 -147 -34 -87
-60 -170 -69 -227 -64 -383 -58 -1027 13 -1275 l18 -65 26 50 c14 28 62 111
106 184 92 152 109 200 170 476 78 354 111 596 111 819 l0 133 -50 11 c-70 16
-148 54 -197 97 l-41 35 -16 -40z M4396 5864 c-47 -41 -126 -80 -196 -96 l-50
-11 0 -133 c0 -223 33 -465 111 -819 61 -276 78 -324 170 -476 44 -73 92 -156
106 -184 l26 -50 18 65 c54 189 74 640 45 990 -24 281 -38 353 -101 512 -30
75 -55 143 -55 150 0 7 -8 30 -18 50 l-17 37 -39 -35z"/>

<!-- [FMA:22357] Semitendinosus -->
<path id="FMA:22357" class="muscle" d="M3040 5643 c0 -194 -26 -410 -82 -688 -66 -328 -19 -501 251 -930 80
-127 99 -138 130 -77 14 28 23 76 31 168 6 71 18 183 27 249 21 145 23 462 5
585 -7 47 -30 159 -52 250 -33 136 -79 441 -80 538 0 9 -30 12 -115 12 l-115
0 0 -107z M3900 5738 c-1 -97 -47 -402 -80 -538 -22 -91 -45 -203 -52 -250
-18 -123 -16 -440 5 -585 9 -66 21 -178 27 -249 8 -92 17 -140 31 -168 31 -61
50 -50 130 77 270 429 317 602 251 930 -56 278 -82 494 -82 688 l0 107 -115 0
c-85 0 -115 -3 -115 -12z"/>

<!-- [FMA:32546] Infraspinatus -->
<path id="FMA:32546" class="muscle" d="M3000 9544 c0 -62 -73 -131 -247 -234 -40 -23 -73 -46 -73 -50 0 -5
15 -13 33 -19 46 -15 100 -63 155 -135 26 -34 77 -95 114 -136 l67 -73 14 34
c7 19 20 52 27 74 7 22 25 65 40 95 15 30 26 60 24 65 -1 6 -19 68 -39 140
-36 129 -63 198 -97 244 l-18 24 0 -29z M4150 9548 c-35 -55 -62 -125 -96
-245 -19 -70 -37 -132 -38 -138 -2 -5 9 -35 24 -65 15 -30 33 -73 40 -95 7
-22 20 -55 27 -74 l14 -34 67 73 c37 41 88 102 114 136 55 72 109 120 155 135
18 6 33 14 33 19 0 4 -33 27 -72 50 -173 102 -236 160 -247 227 -6 33 -6 34
-21 11z"/>

<!-- [FMA:32549] Teres Major -->
<path id="FMA:32549" class="muscle" d="M2599 9227 c-44 -37 -117 -160 -134 -223 -8 -32 -15 -97 -15 -145 l0
-88 46 -7 c47 -7 90 1 304 51 58 14 118 25 133 25 35 0 97 28 97 44 0 6 -27
40 -60 76 -34 36 -79 90 -102 120 -65 87 -89 110 -150 141 -69 35 -85 36 -119
6z M4455 9223 c-65 -33 -78 -45 -141 -128 -29 -38 -80 -99 -114 -135 -33 -36
-60 -70 -60 -76 0 -16 62 -44 97 -44 15 0 75 -11 133 -25 214 -50 257 -58 304
-51 l46 7 0 88 c0 48 -7 113 -15 145 -17 63 -90 186 -134 223 -33 29 -54 28
-116 -4z"/>

<!-- [FMA:32555] Trapezius (Lower Fibers) -->
<path id="FMA:32555" class="muscle" d="M3130 9999 c-24 -5 -74 -24 -110 -43 -122 -64 -182 -79 -291 -72 -53
4 -115 4 -139 0 l-42 -7 41 -14 c23 -8 58 -25 79 -39 20 -14 83 -48 140 -74
172 -82 257 -191 317 -407 14 -51 36 -133 49 -181 23 -84 130 -352 177 -443
12 -24 46 -79 75 -122 46 -68 94 -168 94 -198 0 -5 9 -28 20 -49 15 -30 26
-40 45 -40 19 0 30 10 45 40 11 21 20 44 20 49 0 30 48 130 94 198 29 43 63
98 75 122 47 91 154 359 177 443 13 48 35 130 49 181 60 216 145 325 317 407
57 26 120 60 140 74 21 14 56 31 79 39 l41 14 -42 7 c-24 4 -86 4 -139 0 -108
-7 -169 8 -291 72 -112 58 -185 62 -313 14 -69 -26 -109 -64 -141 -134 -56
-123 -59 -137 -67 -406 -5 -169 -15 -301 -28 -390 -18 -116 -20 -162 -14 -322
4 -126 3 -188 -4 -188 -13 0 -27 342 -18 442 4 43 2 99 -5 138 -7 36 -15 180
-19 320 -8 269 -11 283 -66 405 -39 85 -77 116 -180 148 -71 22 -113 26 -165
16z"/>

<!-- [FMA:32556] Trapezius (Middle Fibers) -->
<path id="FMA:32556" class="muscle" d="M3573 10638 c-15 -19 -58 -123 -78 -188 -32 -103 -116 -231 -210
-317 -82 -75 -101 -103 -71 -103 8 0 51 -12 96 -26 100 -31 148 -75 196 -179
42 -90 70 -252 59 -340 -14 -109 -2 -259 20 -260 13 0 29 107 26 170 -13 199
2 321 54 432 48 105 93 145 195 178 45 14 88 25 96 25 30 0 11 28 -71 103 -94
86 -178 214 -210 317 -22 72 -64 172 -80 188 -10 11 -14 11 -22 0z"/>

<!-- [FMA:32557] Trapezius (Upper Fibers) -->
<path id="FMA:32557" class="muscle" d="M3500 10830 c-60 -8 -125 -36 -153 -67 -10 -11 -27 -64 -38 -119 -25
-118 -102 -288 -149 -327 -17 -15 -74 -52 -128 -83 -182 -105 -406 -264 -453
-320 -13 -15 -10 -16 26 -12 22 3 71 2 108 -3 47 -5 87 -3 128 7 116 27 338
155 447 257 73 70 156 206 197 324 19 54 46 130 60 168 27 71 38 176 20 180
-5 1 -35 -1 -65 -5z M3595 10822 c-14 -37 -3 -109 31 -195 19 -51 46 -123 58
-162 30 -92 121 -238 189 -302 105 -100 324 -225 448 -257 39 -10 76 -12 125
-7 38 4 89 6 114 4 l45 -4 -30 26 c-108 94 -269 206 -430 300 -146 85 -167
104 -213 192 -43 84 -60 135 -87 255 -23 107 -65 142 -187 157 -45 6 -58 4
-63 -7z"/>

<!-- [FMA:37692] Tricep (Long Head) -->
<path id="FMA:37692" class="muscle" d="M2300 8947 c0 -72 -56 -233 -113 -324 -40 -64 -49 -123 -42 -268 7
-122 4 -150 -22 -240 -3 -10 22 10 57 45 88 91 163 263 210 477 35 162 35 201
3 262 -16 31 -42 62 -60 73 l-33 20 0 -45z M4829 8966 c-24 -16 -44 -43 -59
-77 -21 -50 -22 -58 -11 -137 21 -150 89 -372 150 -489 23 -44 146 -177 138
-148 -26 90 -29 118 -22 240 7 145 -2 204 -43 269 -52 84 -101 218 -110 304
l-7 62 -36 -24z"/>

<!-- [FMA:37694] Tricep (Lateral Head) -->
<path id="FMA:37694" class="muscle" d="M2090 9031 c-90 -28 -158 -85 -204 -171 -16 -30 -46 -77 -66 -105
-60 -82 -105 -166 -133 -245 -72 -208 -89 -254 -104 -276 -28 -43 5 -26 77 40
87 80 166 129 271 167 44 16 98 38 119 49 75 38 181 221 222 382 22 89 18 115
-24 141 -28 18 -124 29 -158 18z M4971 9031 c-30 -5 -52 -17 -68 -35 -28 -33
-28 -34 -4 -129 41 -158 147 -339 221 -377 21 -11 75 -33 119 -49 105 -38 184
-87 271 -167 72 -66 105 -83 77 -40 -15 22 -32 68 -104 276 -28 79 -73 163
-133 245 -20 28 -50 75 -66 105 -69 128 -187 192 -313 171z"/>

<!-- [FMA:37704] Anconeus -->
<path id="FMA:37704" class="muscle" d="M1616 8183 c-58 -116 -70 -175 -68 -351 1 -95 -4 -195 -12 -239 l-13
-76 21 29 c12 16 36 45 53 65 53 58 66 101 71 231 3 86 0 140 -13 204 -11 55
-15 105 -11 136 4 26 4 48 2 48 -3 0 -16 -21 -30 -47z M5526 8182 c4 -31 0
-81 -11 -136 -13 -64 -16 -118 -13 -204 5 -130 18 -173 71 -231 17 -20 41 -49
53 -65 l21 -29 -13 76 c-8 44 -13 144 -12 239 2 145 -1 171 -21 233 -24 71
-67 165 -77 165 -2 0 -2 -22 2 -48z"/>

<!-- [FMA:38465] Flexor Carpi Ulnaris -->
<path id="FMA:38465" class="muscle" d="M1900 7795 c-25 -19 -54 -35 -66 -35 -42 0 -124 -52 -186 -119 -79
-84 -147 -179 -283 -396 -104 -165 -215 -335 -225 -345 -3 -3 -12 -14 -20 -25
-8 -11 30 25 85 81 101 101 164 160 308 289 120 106 222 233 303 373 40 70 83
140 96 156 25 31 41 56 36 56 -2 0 -23 -16 -48 -35z M5220 7824 c0 -4 11 -19
24 -33 14 -15 56 -81 94 -148 95 -164 116 -193 219 -299 81 -84 129 -128 273
-258 30 -27 91 -83 135 -125 44 -42 70 -65 59 -51 -26 32 -86 124 -219 335
-137 218 -205 313 -283 396 -62 66 -144 119 -185 119 -11 0 -41 16 -68 36 -27
20 -49 32 -49 28z"/>

<!-- [FMA:38485] Brachioradialis -->
<path id="FMA:38485" class="muscle" d="M1513 8222 c-46 -47 -83 -86 -83 -87 0 -1 22 9 49 22 28 13 58 36 69
51 21 30 54 94 50 97 -2 1 -40 -36 -85 -83z M5580 8289 c0 -8 13 -36 29 -61
23 -36 43 -53 93 -76 l63 -31 -67 60 c-37 33 -79 75 -93 92 -16 20 -25 26 -25
16z"/>

<!-- [FMA:38500] Extensor Digitorum -->
<path id="FMA:38500" class="muscle" d="M1460 8129 c-97 -58 -176 -161 -279 -362 -142 -279 -236 -525 -295
-775 -19 -76 -33 -113 -56 -142 -20 -25 -27 -41 -20 -45 26 -16 88 68 190 255
34 63 102 178 150 256 112 179 160 274 199 399 56 175 93 278 128 354 18 40
33 75 33 77 0 9 -17 3 -50 -17z M5660 8146 c0 -2 15 -37 33 -77 35 -76 72
-179 128 -354 39 -125 87 -220 199 -399 48 -78 116 -193 150 -256 102 -187
164 -271 190 -255 7 4 0 20 -20 45 -23 29 -37 66 -56 142 -59 250 -153 496
-295 775 -83 163 -130 233 -201 299 -57 54 -128 99 -128 80z"/>

<!-- [FMA:38506] Extensor Carpi Ulnaris -->
<path id="FMA:38506" class="muscle" d="M1573 8189 c-15 -5 -38 -41 -72 -111 -49 -105 -79 -189 -171 -493
-63 -210 -87 -265 -165 -385 -34 -52 -89 -149 -123 -215 -34 -66 -79 -145
-102 -174 -22 -30 -40 -57 -40 -61 0 -14 57 -59 82 -65 23 -6 29 -2 42 24 9
16 16 41 16 54 0 13 20 52 44 88 83 119 217 323 316 479 91 144 99 161 114
239 11 57 16 137 15 250 0 171 15 261 57 343 18 35 16 39 -13 27z M5570 8194
c0 -3 7 -18 15 -33 41 -81 56 -172 56 -342 -1 -113 4 -193 15 -250 15 -78 23
-95 114 -239 99 -156 233 -360 316 -479 24 -36 44 -75 44 -88 0 -13 7 -38 16
-54 13 -26 19 -30 42 -24 25 6 82 51 82 65 0 4 -18 31 -40 61 -23 29 -68 108
-102 174 -34 66 -89 163 -123 215 -78 120 -102 175 -165 385 -91 301 -130 411
-178 506 -32 62 -54 95 -69 100 -13 5 -23 6 -23 3z"/>

<!-- [FMA:38518] Extensor Pollicis Brevis -->
<path id="FMA:38518" class="muscle" d="M893 7148 c-11 -18 -41 -59 -67 -91 -57 -70 -78 -144 -56 -196 l13
-33 30 31 c26 25 36 53 67 176 20 80 35 145 34 145 -1 0 -11 -15 -21 -32z
M6263 7150 c58 -249 59 -253 91 -288 l32 -35 14 33 c21 51 1 128 -48 188 -22
26 -52 65 -67 87 -22 32 -26 35 -22 15z"/>

<!-- [FMA:38521] Entensor Pollicis Longus -->
<path id="FMA:38521" class="muscle" d="M1255 7453 c-16 -26 -60 -97 -98 -158 -38 -60 -106 -175 -149 -255
-44 -80 -100 -171 -124 -202 -41 -53 -43 -58 -26 -67 15 -8 23 -6 39 12 36 40
79 110 145 237 36 69 89 161 119 205 47 70 135 262 125 272 -2 2 -16 -18 -31
-44z M5890 7487 c0 -37 65 -179 117 -257 31 -47 85 -141 121 -210 66 -127 109
-197 145 -237 16 -18 24 -20 39 -12 17 9 15 14 -26 67 -24 31 -80 122 -124
202 -43 80 -112 196 -151 258 -39 62 -83 133 -96 159 -14 25 -25 39 -25 30z"/>

<!-- [FMA:45956] Gastrocnemius (Medial Head) -->
<path id="FMA:45956" class="muscle" d="M3140 3799 c-17 -57 -44 -140 -61 -184 -17 -44 -39 -103 -49 -132
-32 -86 -44 -339 -30 -632 18 -389 31 -453 111 -565 75 -104 158 -130 234 -72
59 45 71 78 88 231 33 291 30 405 -13 607 -28 128 -25 118 -70 252 -22 67 -44
153 -50 192 -7 56 -111 387 -125 403 -2 2 -18 -43 -35 -100z M3936 3733 c-31
-93 -61 -200 -67 -238 -5 -39 -27 -124 -49 -191 -45 -134 -42 -124 -70 -252
-43 -202 -46 -316 -13 -607 17 -153 29 -186 88 -231 76 -58 159 -32 234 72 79
110 93 178 112 554 18 364 1 576 -55 708 -19 44 -51 136 -71 203 -20 68 -40
129 -44 137 -4 7 -30 -54 -65 -155z"/>

<!-- [FMA:45959] Gastrocnemius (Lateral head) -->
<path id="FMA:45959" class="muscle" d="M2803 3860 c-3 -12 -19 -46 -35 -74 -68 -121 -71 -132 -79 -291 -4
-82 -17 -213 -29 -290 -36 -242 -50 -395 -50 -553 0 -278 73 -532 152 -532 57
0 110 54 174 180 l49 94 -1 216 c-2 257 -23 494 -69 765 -36 209 -93 496 -101
504 -3 3 -8 -6 -11 -19z M4350 3874 c0 -3 -14 -72 -30 -153 -92 -437 -132
-773 -134 -1111 l-1 -216 49 -94 c64 -126 117 -180 174 -180 29 0 69 50 91
115 78 236 81 497 11 970 -12 77 -25 208 -29 290 -9 160 -14 179 -66 265 -18
30 -36 67 -40 83 -7 24 -25 48 -25 31z"/>

<!-- [FMA:51048] Iliotibial Band -->
<path id="FMA:51048" class="muscle" d="M2740 6843 c-19 -8 -49 -13 -67 -11 -29 4 -34 1 -39 -21 -4 -15 -17
-64 -30 -111 -25 -91 -37 -193 -54 -470 -12 -189 -16 -214 -60 -362 -53 -178
-63 -288 -57 -603 3 -154 13 -345 22 -424 17 -154 62 -432 72 -441 3 -3 3 11
-1 30 -14 80 -18 471 -7 620 26 345 56 512 109 615 8 17 32 79 52 139 l37 109
-29 47 c-17 28 -35 79 -45 127 -23 107 -10 213 51 419 24 84 50 187 56 230 7
43 16 88 21 101 5 13 7 23 6 22 -1 0 -18 -7 -37 -16z M4400 6836 c4 -12 13
-57 20 -100 6 -43 32 -146 56 -230 61 -206 74 -312 51 -419 -10 -48 -28 -99
-45 -127 l-29 -47 37 -109 c20 -60 44 -122 52 -139 9 -16 27 -67 41 -111 57
-179 94 -752 69 -1036 -19 -209 35 72 64 327 8 77 18 266 21 420 6 315 -4 425
-57 603 -44 148 -48 173 -60 362 -17 277 -29 379 -54 470 -13 47 -26 96 -30
111 -5 22 -10 25 -39 21 -18 -2 -50 3 -70 11 -36 15 -36 15 -27 -7z M4642
4405 c0 -16 2 -22 5 -12 2 9 2 23 0 30 -3 6 -5 -1 -5 -18z"/>

<!-- [FMA:71302] Erector spinae -->
<path id="FMA:71302" class="muscle" d="M3480 8288 c-10 -17 -33 -77 -51 -132 -62 -195 -100 -262 -224 -394
-41 -44 -75 -82 -75 -85 0 -4 10 -21 23 -40 27 -40 42 -115 62 -326 9 -84 20
-161 25 -171 5 -9 40 -36 78 -58 71 -43 113 -86 176 -185 21 -32 43 -56 49
-54 17 5 29 221 22 402 -3 83 -1 195 5 250 7 74 6 183 -5 422 -8 178 -12 330
-9 338 6 16 -30 65 -48 65 -5 0 -17 -14 -28 -32z M3635 8300 c-14 -16 -19 -39
-21 -98 -12 -426 -18 -780 -16 -937 5 -264 15 -435 27 -436 5 -1 26 26 47 60
60 99 107 149 180 193 38 22 73 48 78 57 4 9 16 88 25 176 22 221 33 280 61
321 13 19 24 38 24 42 0 4 -25 32 -56 62 -67 67 -138 158 -170 222 -13 26 -42
102 -65 170 -39 118 -72 188 -88 188 -4 0 -16 -9 -26 -20z"/>

<!-- [FMA:74998] Inner Thigh (Adductor) -->
<path id="FMA:74998" class="muscle" d="M3465 5791 c-11 -5 -54 -14 -95 -21 -41 -7 -79 -16 -83 -20 -18 -16
24 -343 68 -530 57 -240 64 -281 72 -425 l7 -120 12 90 c28 198 51 515 69 908
6 138 5 140 -50 118z M3645 5678 c18 -396 41 -713 69 -913 l12 -90 7 123 c9
142 25 234 73 422 32 126 53 259 70 458 l7 82 -29 0 c-16 0 -66 9 -112 20 -46
11 -87 20 -93 20 -5 0 -7 -50 -4 -122z"/>

<!-- [FMA:83006] Deltoid (Lateral) -->
<path id="FMA:83006" class="muscle" d="M2454 9850 c-54 -17 -64 -24 -161 -105 -34 -27 -86 -69 -117 -93 -97
-73 -216 -279 -271 -467 -28 -99 -55 -248 -55 -310 l0 -40 35 55 c81 129 95
158 116 244 54 222 90 285 259 458 125 127 188 167 299 188 31 6 67 13 81 16
l24 5 -32 21 c-17 11 -53 25 -79 32 -41 11 -56 11 -99 -4z M4606 9853 c-50
-15 -100 -42 -92 -50 2 -3 43 -13 91 -24 118 -25 179 -63 298 -183 173 -175
205 -230 258 -442 29 -113 38 -134 95 -221 l64 -97 0 40 c0 127 -58 352 -130
499 -76 157 -136 234 -243 314 -51 37 -99 76 -107 86 -24 29 -91 67 -140 80
-37 10 -55 9 -94 -2z"/>

<!-- [FMA:83007] Deltoid (Posterior) -->
<path id="FMA:83007" class="muscle" d="M2596 9769 c-139 -28 -184 -55 -321 -193 -175 -176 -229 -269 -230
-394 0 -59 2 -66 31 -92 26 -22 45 -29 100 -34 101 -10 148 10 289 123 27 22
70 48 95 57 107 40 355 195 394 246 35 47 36 105 0 147 -37 44 -71 66 -176
115 l-93 43 -89 -18z M4373 9734 c-134 -64 -183 -111 -183 -176 0 -57 34 -98
134 -163 111 -71 232 -139 286 -159 25 -9 68 -35 95 -57 141 -113 188 -133
289 -123 55 5 74 12 100 34 29 26 31 33 31 92 -1 117 -49 205 -197 362 -150
161 -213 199 -375 229 l-71 14 -109 -53z"/>

<!-- Body Outline -->
<path id="body" d="M3505 11759 c-158 -33 -233 -66 -284 -124 -106 -121 -137 -456 -70
-765 22 -99 38 -259 42 -396 2 -74 0 -83 -25 -116 -15 -20 -64 -57 -109 -83
-139 -80 -278 -173 -419 -281 -74 -56 -148 -106 -165 -110 -53 -12 -121 -52
-176 -101 -30 -27 -77 -66 -106 -87 -100 -71 -180 -184 -254 -356 -60 -139
-109 -360 -109 -487 0 -39 -8 -59 -54 -127 -67 -101 -89 -145 -111 -221 -30
-107 -73 -172 -201 -306 -197 -205 -274 -336 -485 -829 -49 -114 -118 -240
-165 -298 l-48 -60 -71 -7 c-46 -4 -84 -14 -107 -28 -20 -12 -59 -35 -87 -52
-54 -32 -95 -90 -89 -128 3 -19 9 -22 53 -23 l50 -1 -1 -45 c-1 -28 -14 -68
-33 -106 -37 -73 -101 -290 -101 -342 0 -66 47 -82 80 -27 11 17 20 41 20 51
0 11 11 42 24 70 14 29 28 64 31 79 9 34 35 36 35 2 0 -34 -19 -158 -36 -233
-17 -72 -7 -105 29 -100 31 4 53 50 83 173 30 121 59 175 52 95 -3 -25 -13
-84 -23 -131 -22 -106 -16 -159 19 -159 29 0 37 18 77 155 36 129 47 151 61
137 7 -7 5 -30 -7 -75 -13 -50 -15 -69 -6 -86 18 -33 47 -26 69 16 7 12 23 54
38 93 14 39 43 99 65 132 47 74 58 109 66 213 5 73 9 84 44 130 43 57 200 212
339 334 217 192 317 311 415 496 27 50 63 107 82 127 18 21 56 84 84 140 42
84 68 120 144 201 64 68 103 118 124 163 46 96 99 254 120 358 l18 91 7 -85
c22 -258 60 -419 142 -592 83 -177 102 -232 116 -345 15 -116 2 -252 -47 -488
-29 -142 -35 -187 -33 -280 2 -94 -2 -123 -25 -202 -34 -116 -43 -184 -61
-463 -11 -158 -21 -247 -36 -300 -91 -331 -105 -486 -80 -890 22 -356 50 -528
140 -870 32 -124 66 -277 74 -340 8 -63 22 -146 31 -185 21 -88 15 -206 -26
-505 -78 -568 -66 -743 76 -1115 170 -446 207 -637 170 -888 -9 -65 -14 -129
-11 -143 7 -26 -8 -44 -148 -185 -58 -60 -58 -60 -54 -110 8 -84 81 -140 273
-210 75 -27 105 -32 182 -33 86 -1 94 1 134 29 84 60 104 114 88 236 -10 69
-9 82 10 123 44 100 45 185 6 416 -23 134 -29 285 -15 385 15 115 20 147 64
400 46 260 41 229 62 420 29 282 9 477 -80 759 -78 249 -82 312 -37 543 17 81
37 225 45 318 9 94 29 267 45 385 66 475 88 711 98 1080 5 189 9 229 23 250 9
14 20 32 23 40 4 11 6 11 6 2 1 -8 9 -26 20 -40 16 -24 19 -55 24 -252 10
-365 31 -604 98 -1080 16 -118 36 -291 45 -385 8 -93 28 -237 45 -320 44 -228
39 -303 -40 -551 -86 -271 -106 -470 -77 -749 21 -191 16 -160 62 -420 83
-472 88 -552 49 -785 -39 -233 -38 -316 6 -416 19 -42 20 -53 10 -123 -18
-124 4 -177 95 -240 48 -32 51 -33 129 -28 138 8 344 89 415 162 26 27 34 45
38 84 4 50 4 50 -54 110 -140 141 -155 159 -148 185 3 14 -2 78 -11 143 -37
251 0 442 170 888 142 372 154 547 76 1115 -41 299 -47 417 -26 505 9 39 23
122 31 185 8 63 39 207 68 320 109 417 155 824 143 1260 -6 209 -15 271 -60
435 -32 114 -44 203 -57 435 -14 230 -23 298 -57 413 -23 79 -27 108 -25 202
2 93 -4 138 -33 280 -49 236 -62 372 -47 488 14 113 32 168 117 347 36 77 70
164 75 193 39 218 51 305 57 395 3 56 7 101 9 99 2 -1 13 -47 24 -101 25 -114
76 -265 122 -361 22 -47 59 -95 123 -163 76 -80 102 -115 144 -200 28 -56 66
-119 84 -140 19 -20 55 -77 82 -127 98 -184 202 -309 415 -496 132 -116 297
-278 339 -333 35 -47 39 -58 44 -131 8 -104 19 -139 66 -213 22 -33 51 -93 65
-132 15 -39 31 -81 38 -93 22 -42 51 -49 69 -16 9 17 7 36 -6 86 -12 45 -14
68 -7 75 14 14 25 -8 61 -137 40 -137 48 -155 77 -155 36 0 41 54 15 175 -11
56 -21 115 -21 131 0 55 26 3 49 -97 26 -117 57 -183 88 -187 36 -5 46 27 29
100 -17 75 -36 199 -36 233 0 34 26 32 35 -2 3 -15 17 -50 31 -79 13 -28 24
-59 24 -70 0 -10 9 -34 20 -51 33 -55 80 -39 80 27 0 53 -55 239 -100 339 -22
49 -40 104 -40 123 l0 34 53 -1 c48 0 52 2 55 25 5 42 -38 91 -126 146 -74 47
-92 53 -156 59 l-72 7 -48 60 c-47 58 -116 184 -165 298 -211 493 -288 624
-485 829 -128 134 -171 199 -201 306 -22 76 -44 120 -111 221 -46 68 -54 88
-54 127 0 127 -49 348 -109 487 -74 172 -154 285 -254 356 -29 21 -76 60 -106
87 -55 49 -123 89 -176 101 -16 4 -91 54 -165 110 -138 105 -271 195 -417 280
-85 49 -129 90 -139 130 -10 42 16 331 41 453 60 289 44 596 -40 738 -50 86
-167 147 -310 160 -33 3 -73 8 -90 9 -16 2 -48 0 -70 -5z m247 -40 c199 -53
272 -194 272 -524 0 -153 -15 -279 -45 -375 -5 -19 -14 -96 -19 -170 -6 -74
-13 -148 -18 -164 -8 -29 -9 -29 -30 30 -12 32 -29 98 -38 147 -15 79 -20 90
-55 122 -50 45 -121 65 -234 65 -152 0 -267 -51 -277 -122 -10 -64 -37 -176
-54 -218 -17 -41 -18 -42 -26 -19 -5 13 -13 82 -18 154 -5 71 -18 171 -29 220
-48 212 -51 415 -11 583 24 99 47 146 92 188 102 97 310 132 490 83z m-182
-944 c0 -34 -10 -79 -26 -122 -14 -37 -40 -111 -58 -163 -18 -53 -58 -136 -89
-186 -86 -139 -184 -222 -382 -322 -147 -74 -184 -82 -322 -75 -107 6 -114 7
-96 22 11 9 65 50 119 92 90 68 144 104 386 252 53 33 86 61 107 93 39 60 89
180 101 246 19 98 39 152 65 171 39 28 95 46 148 46 l47 1 0 -55z m159 40 c86
-30 105 -61 131 -208 6 -35 33 -106 60 -163 54 -112 73 -131 200 -204 160 -92
304 -191 453 -311 18 -15 11 -16 -98 -22 -109 -6 -124 -5 -194 19 -127 42
-320 157 -408 242 -64 63 -150 211 -194 336 -83 231 -82 229 -75 279 7 47 8
47 45 47 21 0 57 -7 80 -15z m-73 -320 c64 -184 154 -315 281 -407 l87 -63
-70 -6 c-169 -16 -254 -85 -316 -258 -17 -47 -22 -95 -29 -306 -5 -137 -13
-270 -17 -295 l-8 -45 -8 55 c-4 30 -11 163 -15 295 -7 203 -11 249 -29 296
-62 173 -147 242 -317 258 l-70 6 66 47 c36 26 86 66 111 90 60 59 151 214
187 318 16 47 39 112 52 144 l23 59 19 -44 c10 -24 34 -89 53 -144z m-341
-520 c100 -37 152 -100 196 -235 18 -56 22 -101 29 -326 3 -143 10 -266 14
-272 4 -7 9 -147 11 -313 2 -165 6 -303 9 -306 15 -16 19 16 15 134 -6 196 -2
299 16 408 10 59 20 204 25 355 6 218 11 264 29 320 28 86 73 163 113 193 50
37 144 68 209 68 71 1 86 -4 169 -46 126 -64 183 -78 296 -71 56 4 113 4 127
1 25 -7 23 -9 -31 -37 -31 -17 -109 -57 -174 -89 -97 -49 -125 -69 -172 -120
-76 -85 -126 -192 -175 -382 -43 -166 -48 -178 -130 -375 -69 -165 -95 -215
-153 -294 -32 -43 -59 -96 -77 -151 -38 -113 -46 -124 -76 -124 -30 0 -38 11
-76 124 -18 55 -45 108 -77 151 -27 37 -63 94 -80 127 -54 110 -153 356 -177
446 -14 49 -36 131 -50 182 -35 124 -85 223 -152 296 -46 51 -74 71 -171 120
-65 32 -143 72 -174 89 -54 28 -56 30 -31 37 14 3 71 3 127 -1 115 -7 172 7
300 74 102 53 181 58 291 17z m-702 -141 c20 -10 37 -21 37 -24 0 -4 -30 -12
-67 -19 -127 -23 -184 -59 -330 -206 -113 -115 -137 -144 -172 -216 -22 -46
-52 -129 -66 -184 -35 -135 -53 -183 -85 -225 -15 -19 -39 -55 -54 -80 l-28
-45 7 80 c13 159 58 319 131 470 74 149 129 222 225 293 46 35 100 78 119 96
41 38 83 65 119 77 38 12 120 4 164 -17z m2148 -3 c24 -13 62 -40 84 -60 22
-21 77 -66 122 -99 58 -44 94 -81 127 -130 126 -190 204 -410 221 -627 l7 -80
-28 45 c-15 25 -39 61 -54 80 -32 41 -50 90 -85 225 -36 142 -79 225 -167 325
-162 185 -263 256 -400 281 -38 7 -68 15 -68 19 0 6 43 27 90 44 30 11 109 -1
151 -23z m-1868 -148 c22 -16 49 -40 60 -55 28 -38 27 -106 -2 -147 -30 -42
-180 -139 -331 -215 -69 -34 -163 -91 -210 -127 -100 -76 -152 -95 -237 -84
-126 15 -159 79 -113 214 34 102 86 176 213 305 139 140 183 167 323 195 l89
17 83 -38 c46 -21 102 -50 125 -65z m1792 56 c69 -26 150 -93 264 -220 139
-152 201 -292 173 -386 -15 -50 -51 -71 -140 -79 -64 -6 -76 -4 -124 19 -29
15 -84 51 -121 81 -38 31 -115 77 -170 104 -131 62 -280 155 -328 203 -63 63
-63 133 1 194 16 15 77 51 135 80 l106 52 77 -15 c42 -8 99 -23 127 -33z
m-492 -262 c24 -37 90 -88 200 -153 83 -49 96 -60 82 -69 -70 -40 -115 -78
-153 -125 -100 -127 -196 -229 -204 -217 -4 7 -17 41 -29 77 -12 36 -33 87
-46 113 l-24 48 36 136 c19 75 52 170 72 212 l38 76 6 -37 c3 -20 13 -47 22
-61z m-1137 -11 c13 -29 40 -113 59 -186 30 -118 32 -135 20 -154 -8 -12 -30
-63 -49 -115 -19 -51 -37 -96 -41 -99 -7 -8 -84 76 -165 179 -66 85 -104 120
-162 150 -22 11 -38 22 -36 24 2 3 47 30 99 61 52 32 109 69 128 83 47 35 91
98 91 130 l0 25 16 -22 c8 -12 26 -46 40 -76z m-331 -259 c44 -25 74 -52 113
-103 30 -38 79 -98 110 -133 31 -35 61 -70 66 -78 14 -25 -16 -43 -90 -54 -38
-5 -123 -22 -189 -39 -166 -40 -189 -43 -241 -35 l-47 7 5 111 c6 124 15 154
78 249 48 72 86 108 115 108 11 0 47 -15 80 -33z m1852 11 c11 -13 42 -55 68
-95 56 -85 75 -153 75 -270 l0 -82 -45 -7 c-51 -7 -75 -4 -240 36 -66 17 -151
34 -188 39 -68 10 -97 23 -97 45 0 6 22 34 49 62 27 28 80 91 117 139 54 68
82 96 129 121 70 40 104 42 132 12z m-2037 -23 c0 -3 -16 -32 -37 -63 -49 -77
-63 -114 -71 -185 l-7 -61 -28 42 c-15 24 -48 54 -77 70 l-49 28 52 26 c29 15
86 54 127 87 70 57 90 69 90 56z m2174 -52 c38 -31 95 -71 129 -89 50 -26 56
-33 39 -38 -39 -13 -101 -66 -120 -103 l-19 -37 -7 60 c-10 81 -23 118 -68
192 -57 93 -51 96 46 15z m-2647 -81 c21 -12 22 -11 -37 -39 l-46 -21 20 64
20 64 12 -29 c7 -16 20 -34 31 -39z m3101 -4 l19 -56 -46 21 c-25 12 -47 22
-49 23 -2 1 8 13 22 27 14 15 26 34 27 44 1 21 2 17 27 -59z m-1998 33 c0 -11
14 -49 30 -86 17 -37 30 -72 30 -79 0 -16 -59 -44 -131 -60 -58 -14 -72 -10
-45 13 15 12 16 16 66 149 30 78 50 104 50 63z m886 -83 c13 -39 35 -90 49
-114 l25 -42 -59 14 c-90 20 -143 44 -137 61 3 7 22 52 42 99 42 97 41 97 80
-18z m-1806 -7 c33 -23 35 -49 15 -135 -35 -146 -139 -330 -209 -371 -23 -13
-78 -37 -123 -53 -104 -37 -175 -80 -270 -165 -77 -68 -94 -77 -73 -37 12 22
33 79 91 248 28 81 93 200 149 272 15 19 40 60 56 90 46 85 113 142 204 171
37 12 132 0 160 -20z m2890 -6 c63 -32 107 -77 144 -145 16 -30 41 -71 56 -90
56 -72 121 -191 149 -272 58 -169 79 -226 91 -248 21 -40 4 -31 -73 37 -95 85
-166 128 -270 165 -122 43 -158 68 -211 145 -81 119 -159 339 -136 383 34 63
151 75 250 25z m-2763 -78 c26 -39 47 -124 35 -141 -5 -6 -12 -36 -16 -66 -11
-86 -54 -234 -104 -360 -40 -99 -56 -124 -109 -180 l-61 -65 14 55 c10 38 13
102 11 215 -2 145 0 164 19 200 74 143 94 188 113 249 12 37 21 88 21 113 l0
44 28 -16 c15 -9 38 -31 49 -48z m2518 -107 c16 -51 45 -112 106 -230 23 -43
24 -54 21 -209 -2 -146 4 -202 25 -258 15 -38 -127 129 -147 173 -69 155 -116
308 -140 465 -11 70 -11 79 10 128 15 34 35 61 59 77 l36 24 6 -57 c3 -32 14
-83 24 -113z m-1616 3 c41 -98 80 -167 135 -243 53 -72 80 -147 71 -192 -4
-18 -19 -55 -33 -83 -14 -27 -38 -93 -54 -145 -17 -52 -51 -135 -76 -185 -38
-74 -65 -108 -152 -196 -58 -59 -121 -116 -140 -128 -71 -43 -122 -25 -249 84
-61 53 -72 68 -91 124 -12 35 -48 120 -81 190 -33 69 -69 155 -79 191 -28 90
-59 285 -67 407 l-6 103 72 0 c47 0 114 10 193 30 66 17 171 38 232 46 124 17
218 39 256 59 14 8 28 14 31 15 3 0 21 -35 38 -77z m722 46 c26 -10 111 -27
189 -39 78 -11 195 -34 260 -50 76 -19 144 -30 189 -30 l71 0 0 -54 c0 -83
-29 -290 -55 -400 -15 -62 -48 -150 -90 -237 -36 -77 -74 -168 -86 -202 -18
-54 -29 -70 -90 -122 -174 -150 -212 -144 -406 59 -114 120 -148 176 -203 346
-22 66 -51 142 -64 168 -13 26 -27 62 -31 80 -10 46 18 120 72 193 43 60 110
186 145 278 14 35 21 42 35 36 10 -4 39 -16 64 -26z m1109 -389 c14 -8 68 -30
121 -50 100 -38 230 -117 255 -155 23 -36 29 -142 11 -226 -9 -41 -18 -99 -22
-130 -5 -43 -12 -62 -33 -81 -69 -65 -114 -65 -179 0 -42 40 -51 57 -66 116
-18 73 -92 206 -115 206 -8 0 -1 -17 18 -45 39 -56 76 -139 84 -185 4 -29 -1
-23 -31 35 -19 39 -44 81 -54 94 -11 13 -28 53 -39 89 -18 57 -20 88 -18 223
3 157 3 158 23 140 11 -10 31 -24 45 -31z m-2989 -277 c-10 -64 -23 -95 -96
-228 -36 -65 -43 -74 -39 -45 8 47 45 129 84 185 19 28 26 45 18 45 -23 0 -97
-133 -115 -206 -15 -59 -24 -76 -66 -116 -65 -65 -110 -65 -179 0 -21 19 -28
38 -33 81 -4 31 -13 89 -22 130 -18 84 -12 190 11 226 25 38 155 117 255 155
111 42 156 65 168 82 13 20 24 -239 14 -309z m1445 -177 c10 -300 10 -340 2
-841 -3 -192 -9 -358 -13 -368 -6 -13 -13 -5 -35 40 -29 62 -96 153 -139 191
-14 13 -51 36 -82 52 -31 16 -59 36 -62 44 -3 8 -13 88 -22 178 -27 267 -50
348 -98 348 -17 0 -5 16 64 88 47 48 100 106 118 129 40 53 91 164 126 273 14
47 38 111 52 143 l26 58 27 -33 27 -32 9 -270z m181 131 c68 -202 115 -279
248 -408 67 -66 76 -79 50 -79 -41 0 -65 -91 -90 -343 -9 -93 -19 -175 -22
-183 -3 -8 -31 -28 -62 -44 -69 -35 -97 -59 -151 -129 -47 -62 -77 -117 -96
-176 -12 -38 -13 -33 -14 75 -1 63 -5 180 -10 260 -5 85 -4 356 2 655 l11 509
26 33 26 33 19 -38 c11 -20 39 -94 63 -165z m-2170 116 c-24 -55 -43 -75 -92
-100 l-50 -25 75 76 c41 42 76 76 77 76 1 0 -3 -12 -10 -27z m4083 -48 l75
-76 -44 20 c-46 20 -83 59 -101 105 -5 14 -8 26 -7 26 1 0 36 -34 77 -75z
m-2073 -77 c-2 -24 -4 -7 -4 37 0 44 2 63 4 43 2 -21 2 -57 0 -80z m-1943 30
c-4 -41 0 -87 10 -131 19 -82 21 -231 2 -308 -9 -42 -27 -75 -71 -130 l-58
-74 8 45 c5 25 10 128 11 230 1 135 6 200 18 242 17 61 71 188 80 188 3 0 3
-28 0 -62z m3917 -3 c54 -119 61 -164 63 -365 1 -102 6 -205 11 -230 l8 -45
-44 54 c-24 29 -50 62 -58 73 -40 55 -53 255 -25 388 10 47 14 96 10 133 -3
31 -3 57 0 57 3 0 19 -29 35 -65z m-3991 -42 c-36 -95 -49 -195 -43 -324 5
-88 2 -140 -12 -215 -16 -90 -22 -106 -80 -194 -34 -52 -92 -144 -130 -205
-37 -60 -88 -139 -113 -175 -116 -165 -152 -224 -152 -247 0 -26 -17 -64 -33
-74 -15 -10 -62 9 -86 35 l-21 23 50 75 c28 42 73 122 102 179 28 57 77 143
109 190 73 108 95 157 154 345 141 454 188 578 240 630 14 14 29 24 32 21 3
-3 -5 -32 -17 -64z m4046 42 c50 -50 96 -170 239 -629 59 -188 81 -238 154
-345 32 -47 81 -133 109 -190 29 -57 74 -137 102 -179 l50 -75 -21 -23 c-24
-26 -71 -45 -86 -35 -16 10 -33 48 -33 74 0 14 -27 64 -61 114 -84 123 -168
250 -292 443 -100 156 -106 170 -121 251 -12 60 -16 133 -15 245 2 137 -1 170
-20 237 -12 44 -28 92 -36 108 -19 36 -3 38 31 4z m-4136 -85 c-17 -33 -60
-149 -96 -258 -81 -243 -114 -315 -241 -517 -55 -88 -124 -205 -153 -260 -89
-166 -155 -255 -179 -240 -7 4 1 21 20 44 25 32 38 71 74 212 46 187 62 232
153 439 161 367 269 536 397 620 52 34 58 25 25 -40z m4230 44 c53 -35 144
-132 187 -198 55 -84 136 -245 215 -426 91 -207 107 -252 153 -439 36 -141 49
-180 74 -212 19 -23 27 -40 20 -44 -24 -15 -90 74 -179 240 -29 55 -97 170
-151 256 -144 230 -166 279 -253 549 -26 80 -62 178 -81 218 -35 74 -31 87 15
56z m-3761 -301 c-7 -10 -23 -29 -34 -43 -12 -14 -54 -81 -93 -150 -99 -175
-178 -267 -392 -460 -114 -102 -88 -78 -198 -185 l-93 -90 93 142 c51 77 143
219 205 315 62 96 141 208 176 249 70 82 158 147 205 153 34 4 89 35 117 66
22 25 32 27 14 3z m3346 -50 c17 -11 42 -21 56 -21 42 1 135 -68 205 -151 36
-41 110 -146 167 -233 56 -88 148 -230 205 -316 l103 -157 -73 71 c-86 83
-181 172 -258 239 -80 71 -227 223 -259 270 -16 22 -59 94 -96 160 -38 66 -78
131 -90 145 -42 50 -51 66 -20 39 17 -14 44 -35 60 -46z m-3544 -22 c-14 -7
-39 -25 -55 -40 l-29 -26 6 25 c3 14 9 46 12 72 l7 46 42 -31 43 -32 -26 -14z
m3744 -25 l7 -39 -36 30 c-19 17 -44 34 -56 38 -20 6 -19 9 17 33 21 14 40 30
42 36 5 11 11 -13 26 -98z m-2610 -106 c55 -27 102 -25 160 5 26 14 55 23 65
20 37 -12 55 -90 80 -355 6 -63 13 -123 16 -132 5 -16 3 -16 -33 -2 -59 25
-256 64 -322 64 -67 0 -135 -21 -170 -53 l-24 -22 6 25 c37 155 59 318 60 442
l1 136 59 -54 c33 -29 79 -63 102 -74z m1562 -7 c1 -125 23 -287 60 -443 l6
-25 -24 22 c-35 32 -103 53 -171 53 -68 0 -240 -33 -312 -60 l-48 -19 6 32 c3
18 10 84 16 147 30 317 47 354 140 306 90 -47 161 -29 266 69 33 30 59 54 60
55 0 0 1 -62 1 -137z m1473 -170 c18 -32 64 -107 103 -168 38 -60 103 -170
144 -245 41 -74 94 -161 119 -192 40 -53 42 -58 25 -67 -14 -8 -23 -5 -38 12
-37 41 -80 111 -133 217 -29 58 -77 143 -107 188 -29 46 -65 105 -78 130 -25
49 -77 182 -71 182 2 0 19 -26 36 -57z m-4666 -33 c-26 -74 -48 -115 -126
-235 -25 -38 -69 -117 -98 -175 -53 -106 -96 -176 -133 -217 -15 -17 -24 -20
-38 -12 -17 9 -15 14 25 67 25 31 78 118 119 192 41 74 113 196 160 271 48 75
92 148 98 163 23 51 19 18 -7 -54z m1796 -239 c41 -10 68 -19 59 -20 -31 -2
-144 -86 -239 -177 -96 -92 -120 -110 -171 -124 -37 -11 -48 4 -60 82 -18 126
25 220 116 254 51 19 190 12 295 -15z m1355 18 c96 -27 145 -127 126 -257 -12
-78 -23 -93 -60 -82 -51 14 -75 32 -161 115 -82 79 -194 165 -242 185 -13 5
-18 9 -13 10 6 0 51 9 100 19 103 22 192 26 250 10z m-3519 -124 c-31 -136
-43 -170 -74 -206 l-25 -31 -13 24 c-28 50 -7 134 50 199 21 24 48 61 59 81
12 20 22 36 23 35 1 -1 -8 -47 -20 -102z m5466 -21 c51 -56 71 -144 45 -192
l-13 -23 -22 23 c-29 32 -48 81 -72 190 -11 51 -23 102 -26 113 -3 11 8 -1 25
-28 17 -26 45 -63 63 -83z m-3086 40 c156 -85 251 -228 278 -424 24 -163 38
-410 34 -580 -3 -144 -5 -158 -29 -204 -30 -57 -51 -67 -194 -93 -262 -47
-479 -1 -602 125 -79 81 -98 138 -97 287 1 107 5 134 38 245 36 123 66 251 87
361 9 50 18 65 81 133 74 81 203 183 247 197 37 11 62 4 157 -47z m797 42 c61
-25 167 -107 241 -188 67 -72 76 -86 85 -137 21 -110 51 -238 87 -361 33 -111
37 -138 38 -245 1 -149 -18 -206 -97 -287 -96 -98 -221 -142 -407 -141 -116 0
-198 11 -302 40 -47 13 -61 22 -78 50 -19 33 -21 52 -22 362 -3 445 13 547
108 692 59 90 119 143 216 190 93 44 88 43 131 25z m-3315 -185 c-14 -69 13
-127 78 -172 27 -18 67 -48 88 -66 42 -35 91 -44 114 -21 9 9 12 7 12 -11 0
-48 -25 -119 -67 -188 -24 -39 -52 -95 -62 -125 -24 -69 -53 -128 -62 -128
-19 0 -20 26 -3 90 14 57 15 71 5 84 -34 40 -62 -2 -101 -149 -28 -106 -40
-136 -54 -132 -19 6 -18 54 3 158 25 123 26 158 5 166 -28 10 -45 -22 -74
-142 -28 -113 -50 -165 -70 -165 -19 0 -20 21 -6 82 20 86 39 229 35 253 -3
14 -12 20 -32 20 -30 0 -30 0 -91 -172 -12 -35 -27 -68 -33 -74 -17 -17 -33
-1 -33 34 0 47 61 248 104 342 34 76 43 124 30 159 -4 12 -16 14 -55 9 -42 -5
-49 -3 -49 12 0 32 31 70 88 106 100 64 132 76 203 78 l36 1 -9 -49z m5815 23
c46 -23 140 -86 154 -104 20 -24 27 -61 13 -70 -7 -4 -28 -3 -48 2 -26 7 -37
7 -43 -4 -18 -27 -8 -85 27 -163 43 -94 104 -295 104 -342 0 -35 -16 -51 -33
-34 -6 6 -21 39 -33 74 -61 172 -61 172 -91 172 -20 0 -29 -6 -32 -20 -4 -24
15 -167 35 -253 14 -61 13 -82 -6 -82 -20 0 -42 53 -70 166 -30 120 -46 151
-74 141 -21 -8 -20 -43 5 -166 21 -104 22 -152 3 -158 -14 -4 -26 26 -54 132
-39 147 -67 189 -101 149 -10 -13 -9 -27 5 -84 17 -64 16 -90 -3 -90 -9 0 -38
59 -62 128 -10 30 -38 86 -62 125 -42 69 -67 140 -67 188 0 18 3 20 12 11 23
-23 72 -14 114 21 21 18 61 48 88 66 76 52 100 126 69 208 -6 14 2 15 56 10
34 -4 76 -14 94 -23z m-3798 -124 c-3 -5 -13 -51 -21 -102 -8 -51 -28 -136
-44 -189 -53 -172 -70 -259 -70 -360 0 -107 16 -176 56 -234 l26 -38 -45 -126
c-25 -69 -57 -157 -72 -196 -57 -149 -89 -446 -89 -832 -1 -144 -1 -261 -2
-260 -5 5 -36 230 -50 352 -22 198 -30 646 -14 770 6 54 30 162 51 239 41 146
47 191 74 554 12 156 21 216 46 306 l31 112 32 -4 c17 -2 42 1 56 7 33 13 43
13 35 1z m1721 -5 l42 0 31 -112 c25 -89 34 -149 46 -305 27 -364 33 -408 74
-555 55 -197 65 -297 58 -603 -5 -256 -23 -468 -55 -660 l-17 -103 -1 264 c0
388 -32 685 -89 834 -15 39 -47 127 -72 196 l-45 126 26 38 c81 119 77 301
-14 594 -16 53 -36 138 -44 189 -8 51 -18 97 -22 103 -4 8 1 8 17 3 13 -5 43
-9 65 -9z m-1625 -1030 c29 -13 75 -30 103 -37 l49 -12 -6 -201 c-7 -221 -31
-404 -92 -690 -70 -332 -90 -388 -195 -555 -26 -42 -62 -105 -80 -139 -17 -35
-33 -61 -35 -60 -11 13 -45 172 -57 264 -20 168 -17 678 5 885 23 206 36 263
91 398 24 59 49 127 56 152 22 83 26 85 69 50 21 -16 63 -41 92 -55z m1605 17
c9 -31 36 -105 60 -164 55 -135 68 -192 91 -398 22 -207 25 -717 5 -885 -12
-92 -46 -251 -57 -264 -2 -1 -18 25 -35 60 -18 34 -54 97 -80 139 -105 167
-125 224 -194 550 -69 325 -87 458 -93 686 l-6 210 63 17 c70 20 141 54 185
90 16 14 33 23 37 21 4 -3 15 -31 24 -62z m-951 -149 c-18 -386 -41 -708 -64
-872 l-7 -56 -8 85 c-11 124 -32 234 -72 388 -32 126 -52 259 -70 460 l-7 82
34 1 c19 0 66 9 104 19 39 10 76 18 83 19 10 1 12 -25 7 -126z m272 98 c45 -9
85 -20 88 -23 12 -11 -27 -344 -52 -453 -14 -60 -36 -155 -49 -209 -13 -54
-29 -153 -36 -220 -12 -118 -12 -120 -19 -65 -23 171 -46 487 -64 873 l-6 128
28 -7 c15 -4 65 -15 110 -24z m-523 -63 c4 -24 13 -109 21 -189 9 -97 29 -205
59 -325 24 -98 49 -219 55 -269 17 -141 14 -400 -8 -570 -11 -82 -22 -190 -26
-240 -10 -144 -44 -225 -81 -194 -28 23 -150 221 -248 402 -60 112 -97 246
-103 372 -4 92 -1 130 21 235 57 277 86 518 86 718 l0 102 109 0 110 0 5 -42z
m869 -140 c7 -194 29 -369 79 -613 53 -264 31 -417 -94 -655 -67 -126 -211
-362 -233 -380 -38 -32 -64 35 -81 207 -7 80 -20 197 -29 261 -17 134 -20 409
-5 532 6 47 31 172 56 278 30 129 50 245 60 350 22 227 5 202 133 202 l108 0
6 -182z m-1223 -938 c0 -10 15 -70 34 -134 36 -123 98 -248 236 -470 78 -124
106 -150 141 -128 24 15 24 13 0 -96 -10 -48 -22 -105 -26 -127 -7 -39 -8 -37
-59 108 -29 81 -56 150 -60 154 -14 14 -29 -19 -67 -148 -22 -74 -58 -178 -80
-232 -41 -101 -58 -191 -60 -327 -1 -63 -1 -62 -19 50 -42 275 -120 644 -140
664 -10 10 -10 9 -29 -68 -6 -27 -30 -80 -53 -118 -48 -81 -49 -80 -68 48 -6
43 -18 122 -27 174 l-15 96 32 63 c17 35 63 115 103 179 66 107 137 275 137
325 0 10 5 15 10 12 6 -3 10 -15 10 -25z m1428 -170 c10 -25 49 -93 85 -151
35 -58 79 -134 97 -169 l32 -64 -15 -96 c-9 -52 -21 -131 -27 -174 -19 -128
-20 -129 -68 -48 -23 38 -47 91 -53 118 -19 77 -19 78 -29 68 -20 -20 -103
-411 -139 -663 l-17 -113 -12 142 c-10 130 -15 150 -56 253 -24 62 -62 171
-83 242 -25 87 -43 130 -52 130 -9 0 -33 -53 -67 -150 -29 -82 -53 -148 -54
-145 0 3 -11 59 -25 125 -14 66 -25 123 -25 127 0 5 11 6 25 2 36 -9 54 10
144 156 157 253 216 377 251 535 19 83 21 83 45 0 13 -44 32 -100 43 -125z
m-1821 -2 c-3 -8 -6 -5 -6 6 -1 11 2 17 5 13 3 -3 4 -12 1 -19z m2140 0 c-3
-8 -6 -5 -6 6 -1 11 2 17 5 13 3 -3 4 -12 1 -19z m-1428 -732 c28 -82 56 -181
62 -220 5 -39 32 -138 58 -221 84 -257 96 -327 95 -565 -1 -268 -20 -406 -61
-458 -39 -48 -89 -82 -123 -82 -70 0 -176 113 -214 228 -48 145 -70 771 -35
1000 5 35 27 105 48 156 21 50 53 145 71 209 19 65 37 114 40 110 4 -4 31 -75
59 -157z m811 42 c18 -62 50 -156 72 -208 52 -127 61 -201 61 -495 0 -276 -16
-528 -40 -620 -38 -154 -161 -283 -249 -261 -33 9 -98 69 -117 109 -26 55 -50
333 -44 502 7 170 28 275 101 508 25 79 50 175 56 214 10 72 106 363 120 363
4 0 22 -51 40 -112z m-1176 -145 c80 -414 101 -593 112 -933 8 -267 1 -311
-63 -426 -50 -90 -105 -144 -148 -144 -24 0 -65 41 -84 84 -39 91 -63 233 -68
397 -6 180 3 299 43 574 14 94 29 239 33 322 7 147 9 155 41 215 18 35 43 82
54 105 12 24 24 43 27 43 4 0 27 -107 53 -237z m1522 194 c11 -23 36 -70 54
-105 32 -60 34 -68 41 -215 4 -83 19 -228 33 -322 40 -275 49 -394 43 -574 -4
-132 -10 -187 -30 -267 -31 -121 -43 -150 -76 -186 -32 -35 -58 -35 -107 0
-45 33 -126 170 -145 247 -24 97 2 611 46 895 25 158 107 570 114 570 3 0 15
-19 27 -43z m-160 -1546 c73 -134 152 -194 213 -162 19 11 19 9 -6 -56 -14
-38 -48 -129 -75 -203 -27 -74 -80 -200 -118 -280 -99 -209 -104 -229 -98
-438 6 -211 8 -207 -98 -199 -40 3 -86 11 -101 19 l-28 13 -1 205 c0 172 -5
229 -26 355 -15 83 -29 173 -33 200 -3 28 -22 133 -40 235 -19 102 -37 208
-41 235 l-7 50 34 -33 c74 -72 156 -65 241 19 49 49 102 145 115 209 7 34 7
33 15 -24 5 -40 22 -85 54 -145z m-1156 30 c91 -143 208 -178 299 -89 l34 33
-8 -55 c-4 -30 -22 -134 -40 -230 -19 -96 -37 -197 -41 -225 -3 -27 -18 -115
-32 -195 -21 -122 -25 -179 -27 -358 -1 -117 -5 -216 -11 -221 -12 -12 -107
-31 -154 -31 -67 0 -70 8 -63 198 7 206 -1 239 -97 442 -38 80 -91 206 -118
280 -27 74 -61 165 -75 203 -25 65 -25 67 -6 56 36 -19 87 -1 132 44 53 54
127 198 135 262 l5 48 17 -56 c10 -31 32 -79 50 -106z m-93 -898 c26 -75 27
-85 25 -258 -3 -179 -6 -194 -39 -195 -7 0 -25 11 -40 24 -26 22 -28 30 -28
93 0 37 6 113 12 168 12 94 8 191 -12 325 -5 32 -3 30 25 -22 16 -31 42 -92
57 -135z m1293 111 c-16 -97 -16 -243 -1 -354 8 -53 11 -112 7 -133 -8 -41
-49 -79 -80 -75 -20 3 -22 12 -29 133 -10 158 -4 232 23 310 25 72 82 197 87
191 2 -2 -1 -34 -7 -72z m-931 -304 c24 -153 23 -223 -4 -288 -15 -34 -16 -35
-33 -19 -15 15 -18 45 -21 215 -2 130 1 231 10 297 l14 100 6 -80 c3 -44 16
-145 28 -225z m550 -30 c0 -254 -19 -339 -56 -254 -22 50 -22 194 1 319 9 50
19 131 23 180 l7 90 12 -80 c7 -44 13 -159 13 -255z m-986 -220 c16 -19 39
-25 79 -21 10 1 28 -5 40 -13 28 -20 94 -20 173 -2 37 9 61 11 63 5 2 -5 14
-22 27 -37 18 -21 23 -42 26 -92 8 -179 -1 -208 -78 -260 -46 -30 -52 -32
-123 -27 -113 6 -301 77 -378 142 -61 51 -61 140 0 174 12 7 41 35 63 63 43
54 75 88 85 88 3 0 13 -9 23 -20z m1413 2 c10 -11 37 -42 59 -70 22 -28 51
-56 63 -63 61 -34 61 -123 0 -174 -74 -63 -264 -135 -374 -143 -84 -5 -136 16
-181 75 -27 36 -28 39 -26 154 3 107 5 121 29 157 l26 39 61 -13 c82 -18 136
-17 171 1 16 9 37 15 45 14 40 -4 62 3 78 21 21 25 24 25 49 2z"/>
</g>
</svg>
